<?xml version="1.0" encoding="utf-8"?>
<!-- Generator: Adobe Illustrator 26.4.1, SVG Export Plug-In . SVG Version: 6.00 Build 0)  -->
<svg version="1.1" id="Capa_1" xmlns="http://www.w3.org/2000/svg" xmlns:xlink="http://www.w3.org/1999/xlink" x="0px" y="0px"
	 viewBox="0 0 926 864" style="enable-background:new 0 0 926 864;" xml:space="preserve">
<style type="text/css">
	.st0{fill:#151C24;}
	.st1{fill:#FFFFFF;}
	.st2{fill:none;stroke:url(#SVGID_1_);}
	.st3{fill:none;stroke:#323499;}
	.st4{fill:url(#SVGID_00000150104613511349402940000013871967568311379368_);}
	.st5{fill:url(#SVGID_00000125563013709995638970000006910196118898866866_);}
	.st6{fill:url(#SVGID_00000142159086054901190030000014617172751927751304_);}
	.st7{fill:url(#SVGID_00000038404712200222835660000010551150862711950470_);}
	.st8{fill:url(#SVGID_00000147191736569969589020000018348164438764042894_);}
	.st9{fill:url(#SVGID_00000098215913512443203970000003532297358153044353_);}
	.st10{fill:url(#SVGID_00000066480067941678180660000004376333481461190313_);}
	.st11{fill:url(#SVGID_00000111157012874329321510000000265633752763486859_);}
	.st12{fill:url(#SVGID_00000044173497096880566670000007204737631678980508_);}
	.st13{fill:url(#SVGID_00000175284629831243860930000011040569137643274153_);}
	.st14{fill:url(#SVGID_00000119804840732302986830000002470281282036152714_);}
	.st15{fill:none;stroke:url(#SVGID_00000169528293768262151980000011571255033877995678_);stroke-width:2;}
	.st16{fill:#323499;}
	.st17{fill:#323499;fill-opacity:0.19;}
	.st18{fill:#323499;fill-opacity:0.13;}
	.st19{fill:url(#SVGID_00000100343905816403876340000007724253363261804731_);}
	.st20{fill:url(#SVGID_00000119109379522304672100000018052322866572162196_);}
</style>
<g>
	<path class="st0" d="M631,213.1h-5.5V91c0-18.8-11.3-36.9-31.3-50.2S546.9,20,518.6,20H126.9c-14,0-27.9,1.8-40.9,5.4
		C73,29,61.2,34.2,51.3,40.8c-9.9,6.6-17.8,14.4-23.2,23C22.8,72.4,20,81.6,20,91V764c0,9.3,2.8,18.5,8.1,27.2
		c5.4,8.6,13.2,16.4,23.2,23C61.2,820.8,73,826,86,829.6c13,3.6,26.9,5.4,40.9,5.4h391.7c28.3,0,55.5-7.5,75.6-20.8
		c20-13.3,31.3-31.4,31.3-50.2V299.8h5.5V213.1z"/>
	<path class="st0" d="M590.1,113.8v676.3c0,14.1-8.4,27.5-23.4,37.5c-15,9.9-35.3,15.5-56.4,15.5H117.8c-21.2,0-41.5-5.6-56.4-15.5
		c-15-9.9-23.4-23.4-23.4-37.5V113.8C38,101.1,45.6,89,59.1,80S90.9,66,110,66h55.4c-2.1,3.5-3,7.2-2.7,10.9
		c0.3,3.7,1.8,7.4,4.4,10.7c3.2,3.7,7.7,6.7,13.2,8.9c5.4,2.2,11.6,3.4,18,3.6h228.3c6.4-0.2,12.5-1.5,18-3.6
		c5.4-2.2,10-5.3,13.2-8.9c2.6-3.3,4.1-7,4.4-10.7c0.3-3.7-0.6-7.5-2.7-10.9h58.8c19.1,0,37.4,5,50.9,14
		C582.5,89,590.1,101.1,590.1,113.8z"/>
	<path class="st1" d="M108,104.5h-1.3c-0.1-0.4-0.2-0.7-0.4-1c-0.2-0.3-0.4-0.5-0.7-0.7c-0.3-0.2-0.6-0.3-0.9-0.4
		c-0.3-0.1-0.7-0.1-1-0.1c-0.7,0-1.3,0.2-1.8,0.5c-0.5,0.3-1,0.8-1.3,1.5c-0.3,0.7-0.5,1.4-0.5,2.4c0,0.9,0.2,1.7,0.5,2.4
		c0.3,0.7,0.7,1.1,1.3,1.5c0.5,0.3,1.1,0.5,1.8,0.5c0.4,0,0.7,0,1-0.1c0.3-0.1,0.6-0.2,0.9-0.4c0.3-0.2,0.5-0.4,0.7-0.7
		c0.2-0.3,0.3-0.6,0.4-1h1.3c-0.1,0.6-0.3,1.1-0.5,1.5c-0.3,0.4-0.6,0.8-1,1.1c-0.4,0.3-0.8,0.5-1.3,0.7c-0.5,0.2-1,0.2-1.5,0.2
		c-0.9,0-1.8-0.2-2.5-0.7c-0.7-0.5-1.3-1.1-1.7-1.9c-0.4-0.8-0.6-1.8-0.6-3c0-1.2,0.2-2.1,0.6-3c0.4-0.8,1-1.5,1.7-1.9
		c0.7-0.5,1.6-0.7,2.5-0.7c0.5,0,1.1,0.1,1.5,0.2c0.5,0.2,0.9,0.4,1.3,0.7c0.4,0.3,0.7,0.7,1,1.1C107.7,103.4,107.9,103.9,108,104.5
		z M113.3,112.2c-0.7,0-1.4-0.2-1.9-0.5c-0.6-0.4-1-0.8-1.3-1.5c-0.3-0.6-0.5-1.4-0.5-2.2c0-0.9,0.2-1.6,0.5-2.2
		c0.3-0.6,0.7-1.1,1.3-1.5c0.6-0.4,1.2-0.5,1.9-0.5c0.7,0,1.4,0.2,1.9,0.5c0.6,0.4,1,0.8,1.3,1.5c0.3,0.6,0.5,1.4,0.5,2.2
		c0,0.8-0.2,1.6-0.5,2.2c-0.3,0.6-0.7,1.1-1.3,1.5C114.7,112,114,112.2,113.3,112.2z M113.3,111c0.6,0,1-0.1,1.4-0.4
		c0.4-0.3,0.6-0.7,0.8-1.1c0.2-0.5,0.3-1,0.3-1.5c0-0.5-0.1-1.1-0.3-1.5c-0.2-0.5-0.4-0.9-0.8-1.1s-0.8-0.4-1.4-0.4
		c-0.6,0-1,0.1-1.4,0.4s-0.6,0.7-0.8,1.1s-0.3,1-0.3,1.5c0,0.5,0.1,1.1,0.3,1.5s0.4,0.8,0.8,1.1C112.3,110.9,112.7,111,113.3,111z
		 M118.9,112v-8.2h1.2v1.3h0.1c0.2-0.4,0.4-0.8,0.8-1c0.4-0.2,0.8-0.4,1.4-0.4c0.5,0,1,0.1,1.3,0.4c0.4,0.2,0.6,0.6,0.8,1h0.1
		c0.2-0.4,0.5-0.8,0.9-1c0.4-0.3,0.9-0.4,1.5-0.4c0.7,0,1.3,0.2,1.8,0.7c0.5,0.5,0.7,1.2,0.7,2.1v5.5h-1.3v-5.5c0-0.6-0.2-1-0.5-1.3
		c-0.3-0.3-0.7-0.4-1.2-0.4c-0.6,0-1,0.2-1.3,0.5c-0.3,0.3-0.5,0.8-0.5,1.3v5.3h-1.3v-5.6c0-0.5-0.2-0.8-0.5-1.1
		c-0.3-0.3-0.7-0.4-1.2-0.4c-0.3,0-0.6,0.1-0.9,0.3c-0.3,0.2-0.5,0.4-0.7,0.7c-0.2,0.3-0.3,0.7-0.3,1.1v5.1H118.9z M131.9,115.1
		v-11.2h1.2v1.3h0.1c0.1-0.1,0.2-0.3,0.4-0.5c0.2-0.2,0.4-0.4,0.7-0.6c0.3-0.2,0.7-0.3,1.3-0.3c0.7,0,1.3,0.2,1.8,0.5
		c0.5,0.3,0.9,0.8,1.2,1.5c0.3,0.6,0.4,1.4,0.4,2.2c0,0.9-0.1,1.6-0.4,2.3c-0.3,0.6-0.7,1.1-1.2,1.5c-0.5,0.3-1.1,0.5-1.8,0.5
		c-0.5,0-0.9-0.1-1.3-0.3c-0.3-0.2-0.6-0.4-0.7-0.6c-0.2-0.2-0.3-0.4-0.4-0.6h-0.1v4.3H131.9z M133.2,107.9c0,0.6,0.1,1.2,0.3,1.6
		c0.2,0.5,0.4,0.8,0.8,1.1c0.3,0.3,0.8,0.4,1.3,0.4c0.5,0,1-0.1,1.3-0.4c0.4-0.3,0.6-0.7,0.8-1.1c0.2-0.5,0.3-1,0.3-1.6
		c0-0.6-0.1-1.1-0.3-1.6c-0.2-0.5-0.4-0.8-0.8-1.1c-0.4-0.3-0.8-0.4-1.3-0.4c-0.5,0-0.9,0.1-1.3,0.4c-0.3,0.3-0.6,0.6-0.8,1.1
		C133.3,106.8,133.2,107.3,133.2,107.9z M99,130v-8.2h1.2v1.2h0.1c0.1-0.4,0.4-0.7,0.8-1c0.4-0.3,0.8-0.4,1.3-0.4c0.1,0,0.2,0,0.3,0
		c0.1,0,0.2,0,0.3,0v1.3c0,0-0.1,0-0.3,0c-0.1,0-0.3,0-0.5,0c-0.4,0-0.8,0.1-1.1,0.2c-0.3,0.2-0.6,0.4-0.7,0.7
		c-0.2,0.3-0.3,0.6-0.3,1v5.2H99z M107,130.2c-0.5,0-1-0.1-1.4-0.3c-0.4-0.2-0.8-0.5-1-0.9c-0.2-0.4-0.4-0.8-0.4-1.4
		c0-0.5,0.1-0.8,0.3-1.1c0.2-0.3,0.4-0.5,0.7-0.7s0.7-0.3,1-0.4c0.4-0.1,0.8-0.2,1.1-0.2c0.5-0.1,0.9-0.1,1.2-0.1
		c0.3,0,0.5-0.1,0.7-0.2c0.1-0.1,0.2-0.2,0.2-0.4v0c0-0.5-0.1-0.9-0.4-1.2c-0.3-0.3-0.7-0.4-1.3-0.4c-0.6,0-1.1,0.1-1.4,0.4
		c-0.3,0.3-0.6,0.5-0.7,0.8l-1.2-0.4c0.2-0.5,0.5-0.9,0.9-1.2c0.4-0.3,0.7-0.5,1.2-0.6c0.4-0.1,0.8-0.2,1.3-0.2c0.3,0,0.6,0,0.9,0.1
		c0.3,0.1,0.7,0.2,1,0.4c0.3,0.2,0.6,0.5,0.8,0.9c0.2,0.4,0.3,0.9,0.3,1.6v5.4h-1.3v-1.1h-0.1c-0.1,0.2-0.2,0.4-0.4,0.6
		c-0.2,0.2-0.5,0.4-0.8,0.5S107.5,130.2,107,130.2z M107.2,129.1c0.5,0,0.9-0.1,1.3-0.3c0.3-0.2,0.6-0.4,0.8-0.8
		c0.2-0.3,0.3-0.6,0.3-1v-1.2c-0.1,0.1-0.2,0.1-0.4,0.2c-0.2,0-0.4,0.1-0.6,0.1c-0.2,0-0.5,0.1-0.7,0.1c-0.2,0-0.4,0-0.5,0.1
		c-0.3,0-0.6,0.1-0.9,0.2c-0.3,0.1-0.5,0.2-0.7,0.4c-0.2,0.2-0.3,0.4-0.3,0.8c0,0.4,0.2,0.8,0.5,1
		C106.3,129,106.7,129.1,107.2,129.1z M118.9,123.7l-1.1,0.3c-0.1-0.2-0.2-0.4-0.3-0.5c-0.1-0.2-0.3-0.3-0.6-0.4
		c-0.2-0.1-0.5-0.2-0.9-0.2c-0.5,0-0.9,0.1-1.3,0.3c-0.3,0.2-0.5,0.5-0.5,0.9c0,0.3,0.1,0.6,0.3,0.7c0.2,0.2,0.6,0.3,1.1,0.5
		l1.2,0.3c0.7,0.2,1.3,0.4,1.6,0.8c0.4,0.4,0.5,0.8,0.5,1.4c0,0.5-0.1,0.9-0.4,1.3c-0.3,0.4-0.6,0.7-1.1,0.9c-0.5,0.2-1,0.3-1.7,0.3
		c-0.8,0-1.5-0.2-2.1-0.5c-0.5-0.4-0.9-0.9-1-1.6l1.2-0.3c0.1,0.4,0.3,0.8,0.6,1c0.3,0.2,0.7,0.3,1.3,0.3c0.6,0,1.1-0.1,1.4-0.4
		c0.3-0.3,0.5-0.6,0.5-0.9c0-0.3-0.1-0.5-0.3-0.7c-0.2-0.2-0.5-0.3-0.9-0.4l-1.4-0.3c-0.7-0.2-1.3-0.5-1.7-0.8
		c-0.3-0.4-0.5-0.8-0.5-1.4c0-0.5,0.1-0.9,0.4-1.2c0.3-0.4,0.6-0.6,1.1-0.8c0.5-0.2,1-0.3,1.5-0.3c0.8,0,1.4,0.2,1.9,0.5
		C118.4,122.6,118.7,123.1,118.9,123.7z"/>
	<path class="st1" d="M108,104.5h-1.3c-0.1-0.4-0.2-0.7-0.4-1c-0.2-0.3-0.4-0.5-0.7-0.7c-0.3-0.2-0.6-0.3-0.9-0.4
		c-0.3-0.1-0.7-0.1-1-0.1c-0.7,0-1.3,0.2-1.8,0.5c-0.5,0.3-1,0.8-1.3,1.5c-0.3,0.7-0.5,1.4-0.5,2.4c0,0.9,0.2,1.7,0.5,2.4
		c0.3,0.7,0.7,1.1,1.3,1.5c0.5,0.3,1.1,0.5,1.8,0.5c0.4,0,0.7,0,1-0.1c0.3-0.1,0.6-0.2,0.9-0.4c0.3-0.2,0.5-0.4,0.7-0.7
		c0.2-0.3,0.3-0.6,0.4-1h1.3c-0.1,0.6-0.3,1.1-0.5,1.5c-0.3,0.4-0.6,0.8-1,1.1c-0.4,0.3-0.8,0.5-1.3,0.7c-0.5,0.2-1,0.2-1.6,0.2
		c-0.9,0-1.8-0.2-2.5-0.7c-0.7-0.5-1.3-1.1-1.7-1.9c-0.4-0.8-0.6-1.8-0.6-3c0-1.2,0.2-2.1,0.6-3c0.4-0.8,1-1.5,1.7-1.9
		c0.7-0.5,1.6-0.7,2.5-0.7c0.6,0,1.1,0.1,1.6,0.2c0.5,0.2,0.9,0.4,1.3,0.7c0.4,0.3,0.7,0.7,1,1.1C107.7,103.4,107.9,103.9,108,104.5
		z M113.3,112.2c-0.7,0-1.4-0.2-1.9-0.5c-0.6-0.4-1-0.8-1.3-1.5c-0.3-0.6-0.5-1.4-0.5-2.2c0-0.9,0.2-1.6,0.5-2.2
		c0.3-0.6,0.7-1.1,1.3-1.5c0.6-0.4,1.2-0.5,1.9-0.5c0.7,0,1.4,0.2,1.9,0.5c0.6,0.4,1,0.8,1.3,1.5c0.3,0.6,0.5,1.4,0.5,2.2
		c0,0.8-0.2,1.6-0.5,2.2c-0.3,0.6-0.7,1.1-1.3,1.5C114.7,112,114,112.2,113.3,112.2z M113.3,111c0.6,0,1-0.1,1.4-0.4
		c0.4-0.3,0.6-0.7,0.8-1.1c0.2-0.5,0.3-1,0.3-1.5c0-0.5-0.1-1.1-0.3-1.5c-0.2-0.5-0.4-0.9-0.8-1.1s-0.8-0.4-1.4-0.4
		c-0.6,0-1,0.1-1.4,0.4s-0.6,0.7-0.8,1.1c-0.2,0.5-0.3,1-0.3,1.5c0,0.5,0.1,1.1,0.3,1.5c0.2,0.5,0.4,0.8,0.8,1.1
		C112.3,110.9,112.7,111,113.3,111z M118.9,112v-8.2h1.2v1.3h0.1c0.2-0.4,0.4-0.8,0.8-1c0.4-0.2,0.8-0.4,1.4-0.4
		c0.5,0,1,0.1,1.3,0.4c0.4,0.2,0.6,0.6,0.8,1h0.1c0.2-0.4,0.5-0.8,0.9-1c0.4-0.3,0.9-0.4,1.5-0.4c0.7,0,1.3,0.2,1.8,0.7
		c0.5,0.5,0.7,1.2,0.7,2.1v5.5h-1.3v-5.5c0-0.6-0.2-1-0.5-1.3c-0.3-0.3-0.7-0.4-1.2-0.4c-0.6,0-1,0.2-1.3,0.5
		c-0.3,0.3-0.5,0.8-0.5,1.3v5.3h-1.3v-5.6c0-0.5-0.2-0.8-0.5-1.1c-0.3-0.3-0.7-0.4-1.2-0.4c-0.3,0-0.6,0.1-0.9,0.3
		c-0.3,0.2-0.5,0.4-0.7,0.7c-0.2,0.3-0.3,0.7-0.3,1.1v5.1H118.9z M132,115.1v-11.2h1.2v1.3h0.1c0.1-0.1,0.2-0.3,0.4-0.5
		c0.2-0.2,0.4-0.4,0.7-0.6c0.3-0.2,0.7-0.3,1.3-0.3c0.7,0,1.3,0.2,1.8,0.5c0.5,0.3,0.9,0.8,1.2,1.5c0.3,0.6,0.4,1.4,0.4,2.2
		c0,0.9-0.1,1.6-0.4,2.3c-0.3,0.6-0.7,1.1-1.2,1.5c-0.5,0.3-1.1,0.5-1.8,0.5c-0.5,0-0.9-0.1-1.3-0.3c-0.3-0.2-0.6-0.4-0.7-0.6
		c-0.2-0.2-0.3-0.4-0.4-0.6h-0.1v4.3H132z M133.2,107.9c0,0.6,0.1,1.2,0.3,1.6c0.2,0.5,0.4,0.8,0.8,1.1c0.3,0.3,0.8,0.4,1.3,0.4
		c0.5,0,1-0.1,1.3-0.4c0.4-0.3,0.6-0.7,0.8-1.1c0.2-0.5,0.3-1,0.3-1.6c0-0.6-0.1-1.1-0.3-1.6c-0.2-0.5-0.4-0.8-0.8-1.1
		c-0.4-0.3-0.8-0.4-1.3-0.4c-0.5,0-0.9,0.1-1.3,0.4c-0.3,0.3-0.6,0.6-0.8,1.1C133.3,106.8,133.2,107.3,133.2,107.9z M141.1,112v-8.2
		h1.2v1.2h0.1c0.1-0.4,0.4-0.7,0.8-1c0.4-0.3,0.8-0.4,1.3-0.4c0.1,0,0.2,0,0.3,0c0.1,0,0.2,0,0.3,0v1.3c0,0-0.1,0-0.3,0
		c-0.1,0-0.3,0-0.5,0c-0.4,0-0.8,0.1-1.1,0.2c-0.3,0.2-0.6,0.4-0.7,0.7c-0.2,0.3-0.3,0.6-0.3,1v5.2H141.1z M149.1,112.2
		c-0.5,0-1-0.1-1.4-0.3c-0.4-0.2-0.8-0.5-1-0.9c-0.2-0.4-0.4-0.8-0.4-1.4c0-0.5,0.1-0.8,0.3-1.1c0.2-0.3,0.4-0.5,0.7-0.7
		c0.3-0.2,0.6-0.3,1-0.4c0.4-0.1,0.8-0.2,1.1-0.2c0.5-0.1,0.9-0.1,1.2-0.1c0.3,0,0.5-0.1,0.7-0.2c0.1-0.1,0.2-0.2,0.2-0.4v0
		c0-0.5-0.1-0.9-0.4-1.2c-0.3-0.3-0.7-0.4-1.3-0.4c-0.6,0-1.1,0.1-1.4,0.4s-0.6,0.5-0.7,0.8l-1.2-0.4c0.2-0.5,0.5-0.9,0.9-1.2
		c0.4-0.3,0.7-0.5,1.2-0.6c0.4-0.1,0.8-0.2,1.3-0.2c0.3,0,0.6,0,0.9,0.1c0.3,0.1,0.7,0.2,1,0.4c0.3,0.2,0.6,0.5,0.8,0.9
		s0.3,0.9,0.3,1.6v5.4h-1.3v-1.1h-0.1c-0.1,0.2-0.2,0.4-0.4,0.6c-0.2,0.2-0.5,0.4-0.8,0.5C150,112.1,149.6,112.2,149.1,112.2z
		 M149.3,111.1c0.5,0,0.9-0.1,1.3-0.3c0.3-0.2,0.6-0.4,0.8-0.8c0.2-0.3,0.3-0.6,0.3-1v-1.2c-0.1,0.1-0.2,0.1-0.4,0.2
		c-0.2,0-0.4,0.1-0.6,0.1c-0.2,0-0.5,0.1-0.7,0.1c-0.2,0-0.4,0-0.5,0.1c-0.3,0-0.6,0.1-0.9,0.2c-0.3,0.1-0.5,0.2-0.7,0.4
		c-0.2,0.2-0.3,0.4-0.3,0.8c0,0.4,0.2,0.8,0.5,1C148.4,111,148.8,111.1,149.3,111.1z M160.9,105.7l-1.1,0.3
		c-0.1-0.2-0.2-0.4-0.3-0.5c-0.1-0.2-0.3-0.3-0.6-0.4c-0.2-0.1-0.5-0.2-0.9-0.2c-0.5,0-0.9,0.1-1.3,0.3c-0.3,0.2-0.5,0.5-0.5,0.9
		c0,0.3,0.1,0.6,0.3,0.7c0.2,0.2,0.6,0.3,1.1,0.5l1.2,0.3c0.7,0.2,1.3,0.4,1.6,0.8c0.4,0.4,0.5,0.8,0.5,1.4c0,0.5-0.1,0.9-0.4,1.3
		c-0.3,0.4-0.6,0.7-1.1,0.9c-0.5,0.2-1,0.3-1.7,0.3c-0.8,0-1.5-0.2-2.1-0.5c-0.5-0.4-0.9-0.9-1-1.6l1.2-0.3c0.1,0.4,0.3,0.8,0.6,1
		c0.3,0.2,0.7,0.3,1.3,0.3c0.6,0,1.1-0.1,1.4-0.4c0.3-0.3,0.5-0.6,0.5-0.9c0-0.3-0.1-0.5-0.3-0.7c-0.2-0.2-0.5-0.3-0.9-0.4l-1.4-0.3
		c-0.7-0.2-1.3-0.5-1.7-0.8c-0.3-0.4-0.5-0.8-0.5-1.4c0-0.5,0.1-0.9,0.4-1.2c0.3-0.4,0.6-0.6,1.1-0.8c0.5-0.2,1-0.3,1.5-0.3
		c0.8,0,1.4,0.2,1.9,0.5C160.4,104.6,160.7,105.1,160.9,105.7z"/>
	<path class="st1" d="M100.2,157v-1.9l7.2-7.9c0.8-0.9,1.5-1.7,2.1-2.4c0.5-0.7,1-1.3,1.2-1.9c0.3-0.6,0.4-1.2,0.4-1.9
		c0-0.8-0.2-1.4-0.6-2c-0.4-0.6-0.9-1-1.5-1.3c-0.6-0.3-1.3-0.5-2.1-0.5c-0.8,0-1.6,0.2-2.2,0.5c-0.6,0.3-1.1,0.8-1.4,1.4
		c-0.3,0.6-0.5,1.3-0.5,2.2h-2.5c0-1.3,0.3-2.4,0.9-3.4c0.6-1,1.4-1.7,2.4-2.3c1-0.5,2.2-0.8,3.4-0.8c1.3,0,2.4,0.3,3.4,0.8
		c1,0.5,1.8,1.3,2.3,2.2c0.6,0.9,0.8,1.9,0.8,3.1c0,0.8-0.1,1.6-0.4,2.4c-0.3,0.8-0.8,1.6-1.5,2.5c-0.7,0.9-1.7,2.1-2.9,3.4
		l-4.9,5.2v0.2h10.1v2.3H100.2z M125.4,157.3c-1.6,0-3-0.4-4.1-1.3c-1.1-0.9-2-2.2-2.6-3.8c-0.6-1.7-0.9-3.7-0.9-6.1
		c0-2.4,0.3-4.4,0.9-6c0.6-1.7,1.5-3,2.6-3.8c1.1-0.9,2.5-1.3,4.1-1.3c1.6,0,3,0.4,4.1,1.3c1.1,0.9,2,2.2,2.6,3.8
		c0.6,1.7,0.9,3.7,0.9,6c0,2.4-0.3,4.4-0.9,6.1c-0.6,1.7-1.5,2.9-2.6,3.8C128.4,156.9,127,157.3,125.4,157.3z M125.4,155
		c1.6,0,2.8-0.8,3.7-2.3c0.9-1.5,1.3-3.7,1.3-6.6c0-1.9-0.2-3.5-0.6-4.8c-0.4-1.3-1-2.3-1.7-3c-0.7-0.7-1.6-1-2.7-1
		c-1.6,0-2.8,0.8-3.7,2.3c-0.9,1.5-1.3,3.7-1.3,6.6c0,1.9,0.2,3.5,0.6,4.8c0.4,1.3,1,2.3,1.7,3C123.5,154.6,124.4,155,125.4,155z
		 M144.7,135.2V157h-2.6v-19H142l-5.3,3.5v-2.7l5.5-3.6H144.7z"/>
	<path class="st1" d="M244.7,112v-10.9h3.7c0.9,0,1.6,0.2,2.1,0.5c0.5,0.3,1,0.7,1.2,1.2c0.3,0.5,0.4,1.1,0.4,1.7
		c0,0.6-0.1,1.2-0.4,1.8c-0.3,0.5-0.7,0.9-1.2,1.3c-0.5,0.3-1.2,0.5-2.1,0.5h-2.6v-1.2h2.6c0.6,0,1.1-0.1,1.4-0.3
		c0.4-0.2,0.6-0.5,0.8-0.8c0.2-0.3,0.2-0.7,0.2-1.2c0-0.4-0.1-0.8-0.2-1.2c-0.2-0.3-0.4-0.6-0.8-0.8c-0.4-0.2-0.8-0.3-1.4-0.3H246
		v9.7H244.7z M254.1,112v-8.2h1.2v1.2h0.1c0.1-0.4,0.4-0.7,0.8-1c0.4-0.3,0.8-0.4,1.3-0.4c0.1,0,0.2,0,0.3,0c0.1,0,0.2,0,0.3,0v1.3
		c0,0-0.1,0-0.3,0c-0.1,0-0.3,0-0.5,0c-0.4,0-0.8,0.1-1.1,0.2c-0.3,0.2-0.6,0.4-0.7,0.7c-0.2,0.3-0.3,0.6-0.3,1v5.2H254.1z
		 M262.7,112.2c-0.7,0-1.4-0.2-1.9-0.5c-0.6-0.4-1-0.8-1.3-1.5c-0.3-0.6-0.5-1.4-0.5-2.2c0-0.9,0.2-1.6,0.5-2.2
		c0.3-0.6,0.7-1.1,1.3-1.5c0.6-0.4,1.2-0.5,1.9-0.5c0.7,0,1.4,0.2,1.9,0.5c0.6,0.4,1,0.8,1.3,1.5c0.3,0.6,0.5,1.4,0.5,2.2
		c0,0.8-0.2,1.6-0.5,2.2c-0.3,0.6-0.7,1.1-1.3,1.5C264.1,112,263.4,112.2,262.7,112.2z M262.7,111c0.6,0,1-0.1,1.4-0.4
		c0.4-0.3,0.6-0.7,0.8-1.1s0.3-1,0.3-1.5c0-0.5-0.1-1.1-0.3-1.5s-0.4-0.9-0.8-1.1s-0.8-0.4-1.4-0.4s-1,0.1-1.4,0.4s-0.6,0.7-0.8,1.1
		c-0.2,0.5-0.3,1-0.3,1.5c0,0.5,0.1,1.1,0.3,1.5c0.2,0.5,0.4,0.8,0.8,1.1C261.7,110.9,262.1,111,262.7,111z M271.4,112.2
		c-0.7,0-1.3-0.2-1.8-0.5c-0.5-0.3-0.9-0.8-1.2-1.5c-0.3-0.6-0.4-1.4-0.4-2.3c0-0.9,0.1-1.6,0.4-2.2c0.3-0.6,0.7-1.1,1.2-1.5
		c0.5-0.3,1.1-0.5,1.8-0.5c0.5,0,1,0.1,1.3,0.3c0.3,0.2,0.6,0.4,0.7,0.6c0.2,0.2,0.3,0.4,0.4,0.5h0.1v-4h1.3V112H274v-1.3h-0.1
		c-0.1,0.1-0.2,0.3-0.4,0.6c-0.2,0.2-0.4,0.4-0.7,0.6C272.4,112.1,271.9,112.2,271.4,112.2z M271.6,111c0.5,0,0.9-0.1,1.3-0.4
		c0.3-0.3,0.6-0.6,0.8-1.1c0.2-0.5,0.3-1,0.3-1.6c0-0.6-0.1-1.1-0.3-1.6c-0.2-0.5-0.4-0.8-0.8-1.1c-0.3-0.3-0.8-0.4-1.3-0.4
		c-0.5,0-1,0.1-1.3,0.4c-0.4,0.3-0.6,0.6-0.8,1.1c-0.2,0.5-0.3,1-0.3,1.6c0,0.6,0.1,1.1,0.3,1.6c0.2,0.5,0.4,0.8,0.8,1.1
		C270.6,110.9,271.1,111,271.6,111z M282.8,108.7v-4.8h1.3v8.2h-1.3v-1.4h-0.1c-0.2,0.4-0.5,0.8-0.9,1.1c-0.4,0.3-0.9,0.4-1.5,0.4
		c-0.5,0-1-0.1-1.4-0.3c-0.4-0.2-0.7-0.6-0.9-1c-0.2-0.5-0.3-1-0.3-1.7v-5.2h1.3v5.1c0,0.6,0.2,1.1,0.5,1.4c0.3,0.4,0.8,0.5,1.3,0.5
		c0.3,0,0.6-0.1,1-0.2c0.3-0.2,0.6-0.4,0.8-0.7C282.7,109.6,282.8,109.2,282.8,108.7z M289.7,112.2c-0.8,0-1.4-0.2-2-0.5
		c-0.6-0.4-1-0.9-1.3-1.5c-0.3-0.6-0.4-1.4-0.4-2.2c0-0.8,0.2-1.6,0.5-2.2c0.3-0.6,0.7-1.1,1.3-1.5c0.6-0.4,1.2-0.5,1.9-0.5
		c0.6,0,1.1,0.1,1.6,0.3c0.5,0.2,0.8,0.5,1.1,0.9c0.3,0.4,0.5,0.8,0.5,1.3h-1.3c-0.1-0.4-0.3-0.7-0.6-1c-0.3-0.3-0.8-0.4-1.3-0.4
		c-0.5,0-0.9,0.1-1.3,0.4c-0.4,0.3-0.7,0.6-0.9,1.1c-0.2,0.5-0.3,1-0.3,1.6c0,0.6,0.1,1.2,0.3,1.7c0.2,0.5,0.5,0.8,0.9,1.1
		c0.4,0.3,0.8,0.4,1.3,0.4c0.3,0,0.6-0.1,0.9-0.2c0.3-0.1,0.5-0.3,0.7-0.5c0.2-0.2,0.3-0.5,0.4-0.8h1.3c-0.1,0.5-0.2,0.9-0.5,1.3
		c-0.3,0.4-0.6,0.7-1.1,0.9C290.8,112.1,290.3,112.2,289.7,112.2z M298.3,103.8v1.1h-4.2v-1.1H298.3z M295.3,101.9h1.3v7.8
		c0,0.4,0.1,0.6,0.2,0.8c0.1,0.2,0.2,0.3,0.4,0.4c0.2,0.1,0.3,0.1,0.5,0.1c0.1,0,0.3,0,0.3,0c0.1,0,0.2,0,0.2,0l0.3,1.1
		c-0.1,0-0.2,0.1-0.4,0.1c-0.2,0-0.3,0.1-0.6,0.1c-0.4,0-0.7-0.1-1-0.2c-0.3-0.2-0.6-0.4-0.8-0.7c-0.2-0.3-0.3-0.7-0.3-1.2V101.9z
		 M303.4,112.2c-0.7,0-1.4-0.2-1.9-0.5c-0.6-0.4-1-0.8-1.3-1.5c-0.3-0.6-0.5-1.4-0.5-2.2c0-0.9,0.2-1.6,0.5-2.2
		c0.3-0.6,0.7-1.1,1.3-1.5c0.6-0.4,1.2-0.5,1.9-0.5c0.7,0,1.4,0.2,1.9,0.5c0.6,0.4,1,0.8,1.3,1.5c0.3,0.6,0.5,1.4,0.5,2.2
		c0,0.8-0.2,1.6-0.5,2.2c-0.3,0.6-0.7,1.1-1.3,1.5C304.8,112,304.2,112.2,303.4,112.2z M303.4,111c0.6,0,1-0.1,1.4-0.4
		c0.4-0.3,0.6-0.7,0.8-1.1c0.2-0.5,0.3-1,0.3-1.5c0-0.5-0.1-1.1-0.3-1.5c-0.2-0.5-0.4-0.9-0.8-1.1c-0.4-0.3-0.8-0.4-1.4-0.4
		c-0.6,0-1,0.1-1.4,0.4c-0.4,0.3-0.6,0.7-0.8,1.1c-0.2,0.5-0.3,1-0.3,1.5c0,0.5,0.1,1.1,0.3,1.5c0.2,0.5,0.4,0.8,0.8,1.1
		C302.4,110.9,302.9,111,303.4,111z M314.9,105.7l-1.1,0.3c-0.1-0.2-0.2-0.4-0.3-0.5c-0.1-0.2-0.3-0.3-0.6-0.4
		c-0.2-0.1-0.5-0.2-0.9-0.2c-0.5,0-0.9,0.1-1.3,0.3c-0.3,0.2-0.5,0.5-0.5,0.9c0,0.3,0.1,0.6,0.3,0.7c0.2,0.2,0.6,0.3,1.1,0.5
		l1.2,0.3c0.7,0.2,1.3,0.4,1.6,0.8c0.4,0.4,0.5,0.8,0.5,1.4c0,0.5-0.1,0.9-0.4,1.3c-0.3,0.4-0.6,0.7-1.1,0.9c-0.5,0.2-1,0.3-1.7,0.3
		c-0.8,0-1.5-0.2-2.1-0.5s-0.9-0.9-1-1.6l1.2-0.3c0.1,0.4,0.3,0.8,0.6,1c0.3,0.2,0.7,0.3,1.3,0.3c0.6,0,1.1-0.1,1.4-0.4
		c0.3-0.3,0.5-0.6,0.5-0.9c0-0.3-0.1-0.5-0.3-0.7c-0.2-0.2-0.5-0.3-0.9-0.4l-1.4-0.3c-0.8-0.2-1.3-0.5-1.7-0.8
		c-0.3-0.4-0.5-0.8-0.5-1.4c0-0.5,0.1-0.9,0.4-1.2c0.3-0.4,0.6-0.6,1.1-0.8c0.5-0.2,1-0.3,1.5-0.3c0.8,0,1.4,0.2,1.9,0.5
		C314.3,104.6,314.7,105.1,314.9,105.7z"/>
	<path class="st1" d="M252.5,157.3c-1.2,0-2.4-0.2-3.4-0.7c-1-0.5-1.8-1.2-2.4-2c-0.6-0.9-0.9-1.9-1-3h2.6c0.1,1,0.5,1.8,1.3,2.5
		c0.8,0.6,1.8,1,2.9,1c0.9,0,1.7-0.2,2.4-0.6c0.7-0.4,1.3-1,1.7-1.7c0.4-0.7,0.6-1.6,0.6-2.5c0-1-0.2-1.8-0.6-2.5
		c-0.4-0.8-1-1.3-1.7-1.8c-0.7-0.4-1.6-0.7-2.5-0.7c-0.7,0-1.4,0.1-2.1,0.3c-0.7,0.2-1.3,0.5-1.7,0.8l-2.5-0.3l1.3-10.7h11.3v2.3
		h-9.1l-0.8,6.4h0.1c0.4-0.4,1-0.7,1.7-0.9c0.7-0.2,1.4-0.4,2.1-0.4c1.3,0,2.5,0.3,3.6,1c1.1,0.6,1.9,1.5,2.5,2.6
		c0.6,1.1,0.9,2.4,0.9,3.8c0,1.4-0.3,2.6-0.9,3.7c-0.6,1.1-1.5,1.9-2.6,2.6C255.1,157,253.8,157.3,252.5,157.3z M271,157.3
		c-1.6,0-3-0.4-4.1-1.3c-1.1-0.9-2-2.2-2.6-3.8c-0.6-1.7-0.9-3.7-0.9-6.1c0-2.4,0.3-4.4,0.9-6c0.6-1.7,1.5-3,2.6-3.8
		c1.1-0.9,2.5-1.3,4.1-1.3c1.6,0,3,0.4,4.1,1.3c1.1,0.9,2,2.2,2.6,3.8c0.6,1.7,0.9,3.7,0.9,6c0,2.4-0.3,4.4-0.9,6.1
		c-0.6,1.7-1.5,2.9-2.6,3.8C274,156.9,272.6,157.3,271,157.3z M271,155c1.6,0,2.8-0.8,3.7-2.3c0.9-1.5,1.3-3.7,1.3-6.6
		c0-1.9-0.2-3.5-0.6-4.8c-0.4-1.3-1-2.3-1.7-3c-0.7-0.7-1.6-1-2.7-1c-1.6,0-2.8,0.8-3.7,2.3c-0.9,1.5-1.3,3.7-1.3,6.6
		c0,1.9,0.2,3.5,0.6,4.8c0.4,1.3,1,2.3,1.7,3C269,154.6,269.9,155,271,155z M289.8,157.3c-1.6,0-3-0.4-4.1-1.3
		c-1.1-0.9-2-2.2-2.6-3.8c-0.6-1.7-0.9-3.7-0.9-6.1c0-2.4,0.3-4.4,0.9-6c0.6-1.7,1.5-3,2.6-3.8c1.1-0.9,2.5-1.3,4.1-1.3
		c1.6,0,3,0.4,4.1,1.3c1.1,0.9,2,2.2,2.6,3.8c0.6,1.7,0.9,3.7,0.9,6c0,2.4-0.3,4.4-0.9,6.1c-0.6,1.7-1.5,2.9-2.6,3.8
		C292.7,156.9,291.4,157.3,289.8,157.3z M289.8,155c1.6,0,2.8-0.8,3.7-2.3c0.9-1.5,1.3-3.7,1.3-6.6c0-1.9-0.2-3.5-0.6-4.8
		c-0.4-1.3-1-2.3-1.7-3c-0.7-0.7-1.6-1-2.7-1c-1.6,0-2.8,0.8-3.7,2.3c-0.9,1.5-1.3,3.7-1.3,6.6c0,1.9,0.2,3.5,0.6,4.8
		c0.4,1.3,1,2.3,1.7,3C287.8,154.6,288.7,155,289.8,155z M308.5,157.3c-1.6,0-3-0.4-4.1-1.3c-1.1-0.9-2-2.2-2.6-3.8
		c-0.6-1.7-0.9-3.7-0.9-6.1c0-2.4,0.3-4.4,0.9-6c0.6-1.7,1.5-3,2.6-3.8c1.1-0.9,2.5-1.3,4.1-1.3c1.6,0,3,0.4,4.1,1.3
		c1.1,0.9,2,2.2,2.6,3.8c0.6,1.7,0.9,3.7,0.9,6c0,2.4-0.3,4.4-0.9,6.1c-0.6,1.7-1.5,2.9-2.6,3.8
		C311.5,156.9,310.1,157.3,308.5,157.3z M308.5,155c1.6,0,2.8-0.8,3.7-2.3c0.9-1.5,1.3-3.7,1.3-6.6c0-1.9-0.2-3.5-0.6-4.8
		c-0.4-1.3-1-2.3-1.7-3c-0.7-0.7-1.6-1-2.7-1c-1.6,0-2.8,0.8-3.7,2.3c-0.9,1.5-1.3,3.7-1.3,6.6c0,1.9,0.2,3.5,0.6,4.8
		c0.4,1.3,1,2.3,1.7,3C306.5,154.6,307.4,155,308.5,155z"/>
	<path class="st1" d="M353.9,790.2V812h-2.6v-19h-0.1l-5.3,3.5v-2.7l5.5-3.6H353.9z M367.3,812.3c-1.6,0-3-0.4-4.1-1.3
		c-1.1-0.9-2-2.2-2.6-3.8c-0.6-1.7-0.9-3.7-0.9-6.1c0-2.4,0.3-4.4,0.9-6c0.6-1.7,1.5-3,2.6-3.8c1.1-0.9,2.5-1.3,4.1-1.3
		s3,0.4,4.1,1.3c1.1,0.9,2,2.2,2.6,3.8c0.6,1.7,0.9,3.7,0.9,6c0,2.4-0.3,4.4-0.9,6.1c-0.6,1.7-1.5,2.9-2.6,3.8
		C370.3,811.9,368.9,812.3,367.3,812.3z M367.3,810c1.6,0,2.8-0.8,3.7-2.3c0.9-1.5,1.3-3.7,1.3-6.6c0-1.9-0.2-3.5-0.6-4.8
		c-0.4-1.3-1-2.3-1.7-3c-0.7-0.7-1.6-1-2.7-1c-1.6,0-2.8,0.8-3.7,2.3c-0.9,1.5-1.3,3.7-1.3,6.6c0,1.9,0.2,3.5,0.6,4.8
		c0.4,1.3,1,2.3,1.7,3C365.4,809.6,366.3,810,367.3,810z M386.1,812.3c-1.6,0-3-0.4-4.1-1.3c-1.1-0.9-2-2.2-2.6-3.8
		c-0.6-1.7-0.9-3.7-0.9-6.1c0-2.4,0.3-4.4,0.9-6c0.6-1.7,1.5-3,2.6-3.8c1.1-0.9,2.5-1.3,4.1-1.3s3,0.4,4.1,1.3
		c1.1,0.9,2,2.2,2.6,3.8c0.6,1.7,0.9,3.7,0.9,6c0,2.4-0.3,4.4-0.9,6.1c-0.6,1.7-1.5,2.9-2.6,3.8C389,811.9,387.7,812.3,386.1,812.3z
		 M386.1,810c1.6,0,2.8-0.8,3.7-2.3c0.9-1.5,1.3-3.7,1.3-6.6c0-1.9-0.2-3.5-0.6-4.8c-0.4-1.3-1-2.3-1.7-3c-0.7-0.7-1.6-1-2.7-1
		c-1.6,0-2.8,0.8-3.7,2.3c-0.9,1.5-1.3,3.7-1.3,6.6c0,1.9,0.2,3.5,0.6,4.8c0.4,1.3,1,2.3,1.7,3C384.1,809.6,385,810,386.1,810z
		 M404.8,812.3c-1.6,0-3-0.4-4.1-1.3c-1.1-0.9-2-2.2-2.6-3.8c-0.6-1.7-0.9-3.7-0.9-6.1c0-2.4,0.3-4.4,0.9-6c0.6-1.7,1.5-3,2.6-3.8
		c1.1-0.9,2.5-1.3,4.1-1.3s3,0.4,4.1,1.3c1.1,0.9,2,2.2,2.6,3.8c0.6,1.7,0.9,3.7,0.9,6c0,2.4-0.3,4.4-0.9,6.1
		c-0.6,1.7-1.5,2.9-2.6,3.8C407.8,811.9,406.4,812.3,404.8,812.3z M404.8,810c1.6,0,2.8-0.8,3.7-2.3c0.9-1.5,1.3-3.7,1.3-6.6
		c0-1.9-0.2-3.5-0.6-4.8c-0.4-1.3-1-2.3-1.7-3c-0.7-0.7-1.6-1-2.7-1c-1.6,0-2.8,0.8-3.7,2.3c-0.9,1.5-1.3,3.7-1.3,6.6
		c0,1.9,0.2,3.5,0.6,4.8c0.4,1.3,1,2.3,1.7,3C402.9,809.6,403.8,810,404.8,810z M423.6,812.3c-1.6,0-3-0.4-4.1-1.3
		c-1.1-0.9-2-2.2-2.6-3.8c-0.6-1.7-0.9-3.7-0.9-6.1c0-2.4,0.3-4.4,0.9-6c0.6-1.7,1.5-3,2.6-3.8c1.1-0.9,2.5-1.3,4.1-1.3
		s3,0.4,4.1,1.3c1.1,0.9,2,2.2,2.6,3.8c0.6,1.7,0.9,3.7,0.9,6c0,2.4-0.3,4.4-0.9,6.1c-0.6,1.7-1.5,2.9-2.6,3.8
		C426.5,811.9,425.2,812.3,423.6,812.3z M423.6,810c1.6,0,2.8-0.8,3.7-2.3c0.9-1.5,1.3-3.7,1.3-6.6c0-1.9-0.2-3.5-0.6-4.8
		c-0.4-1.3-1-2.3-1.7-3c-0.7-0.7-1.6-1-2.7-1c-1.6,0-2.8,0.8-3.7,2.3c-0.9,1.5-1.3,3.7-1.3,6.6c0,1.9,0.2,3.5,0.6,4.8
		c0.4,1.3,1,2.3,1.7,3C421.6,809.6,422.5,810,423.6,810z"/>
	<path class="st1" d="M465.3,670v-10.9h3.7c0.9,0,1.6,0.2,2.1,0.5c0.5,0.3,1,0.7,1.2,1.2c0.3,0.5,0.4,1.1,0.4,1.7
		c0,0.6-0.1,1.2-0.4,1.8c-0.3,0.5-0.7,0.9-1.2,1.3c-0.5,0.3-1.2,0.5-2.1,0.5h-2.6v-1.2h2.6c0.6,0,1.1-0.1,1.4-0.3
		c0.4-0.2,0.6-0.5,0.8-0.8c0.2-0.3,0.2-0.7,0.2-1.2c0-0.4-0.1-0.8-0.2-1.2c-0.2-0.3-0.4-0.6-0.8-0.8c-0.4-0.2-0.8-0.3-1.4-0.3h-2.3
		v9.7H465.3z M474.7,670v-8.2h1.2v1.2h0.1c0.1-0.4,0.4-0.7,0.8-1c0.4-0.3,0.8-0.4,1.3-0.4c0.1,0,0.2,0,0.3,0c0.1,0,0.2,0,0.3,0v1.3
		c0,0-0.1,0-0.3,0c-0.1,0-0.3,0-0.5,0c-0.4,0-0.8,0.1-1.1,0.2c-0.3,0.2-0.6,0.4-0.7,0.7c-0.2,0.3-0.3,0.6-0.3,1v5.2H474.7z
		 M483.3,670.2c-0.7,0-1.4-0.2-1.9-0.5c-0.6-0.4-1-0.8-1.3-1.5c-0.3-0.6-0.5-1.4-0.5-2.2c0-0.9,0.2-1.6,0.5-2.2
		c0.3-0.6,0.7-1.1,1.3-1.5c0.6-0.4,1.2-0.5,1.9-0.5c0.7,0,1.4,0.2,1.9,0.5c0.6,0.4,1,0.8,1.3,1.5c0.3,0.6,0.5,1.4,0.5,2.2
		c0,0.8-0.2,1.6-0.5,2.2c-0.3,0.6-0.7,1.1-1.3,1.5C484.7,670,484.1,670.2,483.3,670.2z M483.3,669c0.6,0,1-0.1,1.4-0.4
		c0.4-0.3,0.6-0.7,0.8-1.1s0.3-1,0.3-1.5s-0.1-1.1-0.3-1.5c-0.2-0.5-0.4-0.9-0.8-1.1c-0.4-0.3-0.8-0.4-1.4-0.4s-1,0.1-1.4,0.4
		c-0.4,0.3-0.6,0.7-0.8,1.1c-0.2,0.5-0.3,1-0.3,1.5s0.1,1.1,0.3,1.5c0.2,0.5,0.4,0.8,0.8,1.1C482.3,668.9,482.8,669,483.3,669z
		 M492,670.2c-0.7,0-1.3-0.2-1.8-0.5c-0.5-0.3-0.9-0.8-1.2-1.5c-0.3-0.6-0.4-1.4-0.4-2.3c0-0.9,0.1-1.6,0.4-2.2s0.7-1.1,1.2-1.5
		c0.5-0.3,1.1-0.5,1.8-0.5c0.5,0,1,0.1,1.3,0.3c0.3,0.2,0.5,0.4,0.7,0.6c0.2,0.2,0.3,0.4,0.4,0.5h0.1v-4h1.3V670h-1.2v-1.3h-0.1
		c-0.1,0.1-0.2,0.3-0.4,0.6c-0.2,0.2-0.4,0.4-0.7,0.6C493,670.1,492.6,670.2,492,670.2z M492.2,669c0.5,0,0.9-0.1,1.3-0.4
		c0.3-0.3,0.6-0.6,0.8-1.1c0.2-0.5,0.3-1,0.3-1.6c0-0.6-0.1-1.1-0.3-1.6c-0.2-0.5-0.4-0.8-0.8-1.1c-0.3-0.3-0.8-0.4-1.3-0.4
		c-0.5,0-1,0.1-1.3,0.4c-0.4,0.3-0.6,0.6-0.8,1.1c-0.2,0.5-0.3,1-0.3,1.6c0,0.6,0.1,1.1,0.3,1.6c0.2,0.5,0.4,0.8,0.8,1.1
		C491.2,668.9,491.7,669,492.2,669z M503.4,666.7v-4.8h1.3v8.2h-1.3v-1.4h-0.1c-0.2,0.4-0.5,0.8-0.9,1.1c-0.4,0.3-0.9,0.4-1.5,0.4
		c-0.5,0-1-0.1-1.4-0.3c-0.4-0.2-0.7-0.6-0.9-1c-0.2-0.5-0.3-1-0.3-1.7v-5.2h1.3v5.1c0,0.6,0.2,1.1,0.5,1.4c0.3,0.4,0.8,0.5,1.3,0.5
		c0.3,0,0.6-0.1,1-0.2c0.3-0.2,0.6-0.4,0.8-0.7C503.3,667.6,503.4,667.2,503.4,666.7z M510.3,670.2c-0.8,0-1.4-0.2-2-0.5
		c-0.6-0.4-1-0.9-1.3-1.5c-0.3-0.6-0.4-1.4-0.4-2.2c0-0.8,0.2-1.6,0.5-2.2c0.3-0.6,0.7-1.1,1.3-1.5c0.6-0.4,1.2-0.5,1.9-0.5
		c0.6,0,1.1,0.1,1.6,0.3c0.5,0.2,0.8,0.5,1.1,0.9c0.3,0.4,0.5,0.8,0.5,1.3h-1.3c-0.1-0.4-0.3-0.7-0.6-1c-0.3-0.3-0.8-0.4-1.3-0.4
		c-0.5,0-0.9,0.1-1.3,0.4c-0.4,0.3-0.7,0.6-0.9,1.1c-0.2,0.5-0.3,1-0.3,1.6c0,0.6,0.1,1.2,0.3,1.7c0.2,0.5,0.5,0.8,0.9,1.1
		c0.4,0.3,0.8,0.4,1.3,0.4c0.3,0,0.6-0.1,0.9-0.2c0.3-0.1,0.5-0.3,0.7-0.5c0.2-0.2,0.3-0.5,0.4-0.8h1.3c-0.1,0.5-0.2,0.9-0.5,1.3
		c-0.3,0.4-0.6,0.7-1.1,0.9C511.4,670.1,510.9,670.2,510.3,670.2z M518.9,661.8v1.1h-4.2v-1.1H518.9z M515.9,659.9h1.3v7.8
		c0,0.4,0.1,0.6,0.2,0.8c0.1,0.2,0.2,0.3,0.4,0.4c0.2,0.1,0.3,0.1,0.5,0.1c0.1,0,0.3,0,0.3,0c0.1,0,0.2,0,0.2,0l0.3,1.1
		c-0.1,0-0.2,0.1-0.4,0.1c-0.2,0-0.3,0.1-0.6,0.1c-0.4,0-0.7-0.1-1-0.2c-0.3-0.2-0.6-0.4-0.8-0.7c-0.2-0.3-0.3-0.7-0.3-1.2V659.9z
		 M524.1,670.2c-0.7,0-1.4-0.2-1.9-0.5c-0.6-0.4-1-0.8-1.3-1.5c-0.3-0.6-0.5-1.4-0.5-2.2c0-0.9,0.2-1.6,0.5-2.2
		c0.3-0.6,0.7-1.1,1.3-1.5c0.6-0.4,1.2-0.5,1.9-0.5c0.7,0,1.4,0.2,1.9,0.5c0.6,0.4,1,0.8,1.3,1.5c0.3,0.6,0.5,1.4,0.5,2.2
		c0,0.8-0.2,1.6-0.5,2.2c-0.3,0.6-0.7,1.1-1.3,1.5C525.4,670,524.8,670.2,524.1,670.2z M524.1,669c0.6,0,1-0.1,1.4-0.4
		c0.4-0.3,0.6-0.7,0.8-1.1s0.3-1,0.3-1.5s-0.1-1.1-0.3-1.5c-0.2-0.5-0.4-0.9-0.8-1.1c-0.4-0.3-0.8-0.4-1.4-0.4c-0.6,0-1,0.1-1.4,0.4
		c-0.4,0.3-0.6,0.7-0.8,1.1c-0.2,0.5-0.3,1-0.3,1.5s0.1,1.1,0.3,1.5c0.2,0.5,0.4,0.8,0.8,1.1C523,668.9,523.5,669,524.1,669z
		 M535.5,663.7l-1.1,0.3c-0.1-0.2-0.2-0.4-0.3-0.5c-0.1-0.2-0.3-0.3-0.6-0.4c-0.2-0.1-0.5-0.2-0.9-0.2c-0.5,0-0.9,0.1-1.3,0.3
		c-0.3,0.2-0.5,0.5-0.5,0.9c0,0.3,0.1,0.6,0.3,0.7c0.2,0.2,0.6,0.3,1.1,0.5l1.2,0.3c0.7,0.2,1.3,0.4,1.6,0.8
		c0.4,0.4,0.5,0.8,0.5,1.4c0,0.5-0.1,0.9-0.4,1.3c-0.3,0.4-0.6,0.7-1.1,0.9c-0.5,0.2-1,0.3-1.7,0.3c-0.8,0-1.5-0.2-2.1-0.5
		c-0.5-0.4-0.9-0.9-1-1.6l1.2-0.3c0.1,0.4,0.3,0.8,0.6,1c0.3,0.2,0.7,0.3,1.3,0.3c0.6,0,1.1-0.1,1.4-0.4c0.3-0.3,0.5-0.6,0.5-0.9
		c0-0.3-0.1-0.5-0.3-0.7c-0.2-0.2-0.5-0.3-0.9-0.4l-1.4-0.3c-0.8-0.2-1.3-0.5-1.7-0.8c-0.3-0.4-0.5-0.8-0.5-1.4
		c0-0.5,0.1-0.9,0.4-1.2c0.3-0.4,0.6-0.6,1.1-0.8c0.5-0.2,1-0.3,1.5-0.3c0.8,0,1.4,0.2,1.9,0.5C534.9,662.6,535.3,663.1,535.5,663.7
		z"/>
	<path class="st1" d="M355.6,659.1V670h-1.3v-10.9H355.6z M359.4,665.1v4.9h-1.3v-8.2h1.2v1.3h0.1c0.2-0.4,0.5-0.8,0.9-1
		c0.4-0.3,0.9-0.4,1.5-0.4c0.6,0,1,0.1,1.5,0.3c0.4,0.2,0.7,0.6,1,1c0.2,0.5,0.3,1,0.3,1.7v5.2h-1.3v-5.1c0-0.6-0.2-1.1-0.5-1.5
		c-0.3-0.4-0.8-0.5-1.4-0.5c-0.4,0-0.8,0.1-1.1,0.3c-0.3,0.2-0.6,0.4-0.7,0.8C359.5,664.2,359.4,664.6,359.4,665.1z M370.5,661.8
		v1.1h-4.4v-1.1H370.5z M367.4,670v-9.3c0-0.5,0.1-0.9,0.3-1.2c0.2-0.3,0.5-0.5,0.9-0.7c0.4-0.2,0.7-0.2,1.1-0.2
		c0.3,0,0.6,0,0.8,0.1c0.2,0,0.3,0.1,0.4,0.1l-0.4,1.1c-0.1,0-0.2,0-0.3-0.1c-0.1,0-0.3,0-0.4,0c-0.4,0-0.7,0.1-0.9,0.3
		c-0.2,0.2-0.3,0.5-0.3,0.9v9H367.4z M375.3,670.2c-0.7,0-1.4-0.2-1.9-0.5c-0.6-0.4-1-0.8-1.3-1.5c-0.3-0.6-0.5-1.4-0.5-2.2
		c0-0.9,0.2-1.6,0.5-2.2c0.3-0.6,0.7-1.1,1.3-1.5c0.6-0.4,1.2-0.5,1.9-0.5c0.7,0,1.4,0.2,1.9,0.5c0.6,0.4,1,0.8,1.3,1.5
		c0.3,0.6,0.5,1.4,0.5,2.2c0,0.8-0.2,1.6-0.5,2.2c-0.3,0.6-0.7,1.1-1.3,1.5C376.7,670,376,670.2,375.3,670.2z M375.3,669
		c0.6,0,1-0.1,1.4-0.4c0.4-0.3,0.6-0.7,0.8-1.1c0.2-0.5,0.3-1,0.3-1.5s-0.1-1.1-0.3-1.5c-0.2-0.5-0.4-0.9-0.8-1.1
		c-0.4-0.3-0.8-0.4-1.4-0.4c-0.6,0-1,0.1-1.4,0.4c-0.4,0.3-0.6,0.7-0.8,1.1c-0.2,0.5-0.3,1-0.3,1.5s0.1,1.1,0.3,1.5
		c0.2,0.5,0.4,0.8,0.8,1.1C374.3,668.9,374.7,669,375.3,669z M380.9,670v-8.2h1.2v1.2h0.1c0.1-0.4,0.4-0.7,0.8-1
		c0.4-0.3,0.8-0.4,1.3-0.4c0.1,0,0.2,0,0.3,0c0.1,0,0.2,0,0.3,0v1.3c0,0-0.1,0-0.3,0c-0.1,0-0.3,0-0.5,0c-0.4,0-0.8,0.1-1.1,0.2
		c-0.3,0.2-0.6,0.4-0.7,0.7c-0.2,0.3-0.3,0.6-0.3,1v5.2H380.9z M386.5,670v-8.2h1.2v1.3h0.1c0.2-0.4,0.4-0.8,0.8-1
		c0.4-0.2,0.8-0.4,1.4-0.4c0.5,0,1,0.1,1.3,0.4c0.4,0.2,0.6,0.6,0.8,1h0.1c0.2-0.4,0.5-0.8,0.9-1c0.4-0.3,0.9-0.4,1.5-0.4
		c0.7,0,1.3,0.2,1.8,0.7c0.5,0.5,0.7,1.2,0.7,2.1v5.5H396v-5.5c0-0.6-0.2-1-0.5-1.3c-0.3-0.3-0.7-0.4-1.2-0.4c-0.6,0-1,0.2-1.3,0.5
		c-0.3,0.3-0.5,0.8-0.5,1.3v5.3h-1.3v-5.6c0-0.5-0.1-0.8-0.5-1.1c-0.3-0.3-0.7-0.4-1.2-0.4c-0.3,0-0.6,0.1-0.9,0.3
		c-0.3,0.2-0.5,0.4-0.7,0.7c-0.2,0.3-0.3,0.7-0.3,1.1v5.1H386.5z M401.9,670.2c-0.5,0-1-0.1-1.4-0.3c-0.4-0.2-0.8-0.5-1-0.9
		c-0.2-0.4-0.4-0.8-0.4-1.4c0-0.5,0.1-0.8,0.3-1.1c0.2-0.3,0.4-0.5,0.7-0.7c0.3-0.2,0.6-0.3,1-0.4c0.4-0.1,0.8-0.2,1.1-0.2
		c0.5-0.1,0.9-0.1,1.2-0.1c0.3,0,0.5-0.1,0.7-0.2c0.1-0.1,0.2-0.2,0.2-0.4v0c0-0.5-0.1-0.9-0.4-1.2c-0.3-0.3-0.7-0.4-1.3-0.4
		c-0.6,0-1.1,0.1-1.4,0.4c-0.3,0.3-0.6,0.5-0.7,0.8l-1.2-0.4c0.2-0.5,0.5-0.9,0.9-1.2c0.4-0.3,0.7-0.5,1.2-0.6
		c0.4-0.1,0.8-0.2,1.3-0.2c0.3,0,0.6,0,0.9,0.1c0.3,0.1,0.7,0.2,1,0.4c0.3,0.2,0.6,0.5,0.8,0.9c0.2,0.4,0.3,0.9,0.3,1.6v5.4h-1.3
		v-1.1h-0.1c-0.1,0.2-0.2,0.4-0.4,0.6c-0.2,0.2-0.5,0.4-0.8,0.5C402.8,670.1,402.4,670.2,401.9,670.2z M402.1,669.1
		c0.5,0,0.9-0.1,1.3-0.3c0.3-0.2,0.6-0.4,0.8-0.8c0.2-0.3,0.3-0.6,0.3-1v-1.2c-0.1,0.1-0.2,0.1-0.4,0.2c-0.2,0-0.4,0.1-0.6,0.1
		c-0.2,0-0.5,0.1-0.7,0.1c-0.2,0-0.4,0-0.5,0.1c-0.3,0-0.6,0.1-0.9,0.2c-0.3,0.1-0.5,0.2-0.7,0.4c-0.2,0.2-0.3,0.4-0.3,0.8
		c0,0.4,0.2,0.8,0.5,1C401.2,669,401.6,669.1,402.1,669.1z M411.3,670.2c-0.8,0-1.4-0.2-2-0.5c-0.6-0.4-1-0.9-1.3-1.5
		c-0.3-0.6-0.4-1.4-0.4-2.2c0-0.8,0.2-1.6,0.5-2.2c0.3-0.6,0.7-1.1,1.3-1.5c0.6-0.4,1.2-0.5,1.9-0.5c0.6,0,1.1,0.1,1.6,0.3
		c0.5,0.2,0.8,0.5,1.1,0.9c0.3,0.4,0.5,0.8,0.5,1.3h-1.3c-0.1-0.4-0.3-0.7-0.6-1c-0.3-0.3-0.8-0.4-1.3-0.4c-0.5,0-0.9,0.1-1.3,0.4
		c-0.4,0.3-0.7,0.6-0.9,1.1c-0.2,0.5-0.3,1-0.3,1.6c0,0.6,0.1,1.2,0.3,1.7c0.2,0.5,0.5,0.8,0.9,1.1c0.4,0.3,0.8,0.4,1.3,0.4
		c0.3,0,0.6-0.1,0.9-0.2c0.3-0.1,0.5-0.3,0.7-0.5c0.2-0.2,0.3-0.5,0.4-0.8h1.3c-0.1,0.5-0.2,0.9-0.5,1.3c-0.3,0.4-0.6,0.7-1.1,0.9
		C412.4,670.1,411.9,670.2,411.3,670.2z M416.4,670v-8.2h1.3v8.2H416.4z M417,660.5c-0.2,0-0.5-0.1-0.6-0.3
		c-0.2-0.2-0.3-0.4-0.3-0.6c0-0.2,0.1-0.4,0.3-0.6c0.2-0.2,0.4-0.2,0.6-0.2c0.2,0,0.5,0.1,0.6,0.2c0.2,0.2,0.3,0.4,0.3,0.6
		c0,0.2-0.1,0.4-0.3,0.6C417.5,660.4,417.2,660.5,417,660.5z M423.2,670.2c-0.7,0-1.4-0.2-1.9-0.5c-0.6-0.4-1-0.8-1.3-1.5
		c-0.3-0.6-0.5-1.4-0.5-2.2c0-0.9,0.2-1.6,0.5-2.2c0.3-0.6,0.7-1.1,1.3-1.5c0.6-0.4,1.2-0.5,1.9-0.5c0.7,0,1.4,0.2,1.9,0.5
		c0.6,0.4,1,0.8,1.3,1.5c0.3,0.6,0.5,1.4,0.5,2.2c0,0.8-0.2,1.6-0.5,2.2c-0.3,0.6-0.7,1.1-1.3,1.5C424.6,670,424,670.2,423.2,670.2z
		 M423.2,669c0.6,0,1-0.1,1.4-0.4c0.4-0.3,0.6-0.7,0.8-1.1s0.3-1,0.3-1.5s-0.1-1.1-0.3-1.5c-0.2-0.5-0.4-0.9-0.8-1.1
		c-0.4-0.3-0.8-0.4-1.4-0.4s-1,0.1-1.4,0.4c-0.4,0.3-0.6,0.7-0.8,1.1c-0.2,0.5-0.3,1-0.3,1.5s0.1,1.1,0.3,1.5
		c0.2,0.5,0.4,0.8,0.8,1.1C422.2,668.9,422.7,669,423.2,669z M430.1,665.1v4.9h-1.3v-8.2h1.2v1.3h0.1c0.2-0.4,0.5-0.8,0.9-1
		c0.4-0.3,0.9-0.4,1.5-0.4c0.6,0,1,0.1,1.5,0.3c0.4,0.2,0.7,0.6,1,1c0.2,0.5,0.3,1,0.3,1.7v5.2h-1.3v-5.1c0-0.6-0.2-1.1-0.5-1.5
		c-0.3-0.4-0.8-0.5-1.4-0.5c-0.4,0-0.8,0.1-1.1,0.3c-0.3,0.2-0.6,0.4-0.7,0.8C430.2,664.2,430.1,664.6,430.1,665.1z"/>
	<path class="st1" d="M291.3,670v-10.9h3.7c0.9,0,1.6,0.2,2.1,0.5c0.5,0.3,1,0.7,1.2,1.2c0.3,0.5,0.4,1.1,0.4,1.7
		c0,0.6-0.1,1.2-0.4,1.8c-0.3,0.5-0.7,0.9-1.2,1.3c-0.5,0.3-1.2,0.5-2.1,0.5h-2.6v-1.2h2.6c0.6,0,1.1-0.1,1.4-0.3
		c0.4-0.2,0.6-0.5,0.8-0.8c0.2-0.3,0.2-0.7,0.2-1.2c0-0.4-0.1-0.8-0.2-1.2c-0.2-0.3-0.4-0.6-0.8-0.8c-0.4-0.2-0.8-0.3-1.4-0.3h-2.3
		v9.7H291.3z M304,670.2c-0.8,0-1.5-0.2-2-0.5c-0.6-0.4-1-0.8-1.3-1.5c-0.3-0.6-0.5-1.4-0.5-2.2c0-0.8,0.2-1.6,0.5-2.2
		c0.3-0.6,0.7-1.1,1.3-1.5c0.6-0.4,1.2-0.5,1.9-0.5c0.4,0,0.8,0.1,1.3,0.2c0.4,0.1,0.8,0.4,1.1,0.7c0.3,0.3,0.6,0.7,0.8,1.3
		c0.2,0.5,0.3,1.2,0.3,1.9v0.5h-6.3v-1.1h5c0-0.5-0.1-0.9-0.3-1.2c-0.2-0.4-0.4-0.6-0.8-0.9c-0.3-0.2-0.7-0.3-1.2-0.3
		c-0.5,0-0.9,0.1-1.3,0.4c-0.4,0.2-0.6,0.6-0.8,1c-0.2,0.4-0.3,0.8-0.3,1.3v0.7c0,0.6,0.1,1.1,0.3,1.6c0.2,0.4,0.5,0.8,0.9,1
		c0.4,0.2,0.8,0.3,1.3,0.3c0.3,0,0.6,0,0.9-0.1c0.3-0.1,0.5-0.2,0.7-0.4c0.2-0.2,0.3-0.4,0.5-0.7l1.2,0.3c-0.1,0.4-0.3,0.8-0.6,1.1
		c-0.3,0.3-0.7,0.6-1.1,0.7C305.1,670.1,304.6,670.2,304,670.2z M309.3,670v-8.2h1.2v1.2h0.1c0.1-0.4,0.4-0.7,0.8-1
		c0.4-0.3,0.8-0.4,1.3-0.4c0.1,0,0.2,0,0.3,0c0.1,0,0.2,0,0.3,0v1.3c0,0-0.1,0-0.3,0c-0.1,0-0.3,0-0.5,0c-0.4,0-0.8,0.1-1.1,0.2
		c-0.3,0.2-0.6,0.4-0.7,0.7c-0.2,0.3-0.3,0.6-0.3,1v5.2H309.3z M319.1,661.8v1.1h-4.4v-1.1H319.1z M316,670v-9.3
		c0-0.5,0.1-0.9,0.3-1.2c0.2-0.3,0.5-0.5,0.9-0.7c0.4-0.2,0.7-0.2,1.1-0.2c0.3,0,0.6,0,0.8,0.1c0.2,0,0.3,0.1,0.4,0.1l-0.4,1.1
		c-0.1,0-0.2,0-0.3-0.1c-0.1,0-0.3,0-0.4,0c-0.4,0-0.7,0.1-0.9,0.3c-0.2,0.2-0.3,0.5-0.3,0.9v9H316z M320.8,670v-8.2h1.3v8.2H320.8z
		 M321.5,660.5c-0.2,0-0.5-0.1-0.6-0.3c-0.2-0.2-0.3-0.4-0.3-0.6c0-0.2,0.1-0.4,0.3-0.6c0.2-0.2,0.4-0.2,0.6-0.2s0.5,0.1,0.6,0.2
		c0.2,0.2,0.3,0.4,0.3,0.6c0,0.2-0.1,0.4-0.3,0.6C321.9,660.4,321.7,660.5,321.5,660.5z M325.6,659.1V670h-1.3v-10.9H325.6z"/>
	<path class="st1" d="M58.7,508.1c-0.8,0-1.5-0.2-2.1-0.7c-0.6-0.4-1-1.1-1.3-1.9c-0.3-0.8-0.4-1.9-0.4-3c0-1.2,0.1-2.2,0.4-3
		c0.3-0.8,0.7-1.5,1.3-1.9c0.6-0.4,1.2-0.7,2-0.7s1.5,0.2,2,0.7c0.6,0.4,1,1.1,1.3,1.9c0.3,0.8,0.5,1.8,0.5,3c0,1.2-0.1,2.2-0.4,3
		c-0.3,0.8-0.7,1.5-1.3,1.9C60.2,507.9,59.5,508.1,58.7,508.1z M58.7,507c0.8,0,1.4-0.4,1.9-1.1s0.7-1.9,0.7-3.3
		c0-0.9-0.1-1.7-0.3-2.4c-0.2-0.7-0.5-1.2-0.9-1.5c-0.4-0.3-0.8-0.5-1.3-0.5c-0.8,0-1.4,0.4-1.8,1.2c-0.4,0.8-0.7,1.9-0.7,3.3
		c0,0.9,0.1,1.7,0.3,2.4c0.2,0.7,0.5,1.2,0.9,1.5C57.7,506.8,58.2,507,58.7,507z M68.3,497.1V508H67v-9.5H67l-2.7,1.8v-1.3l2.7-1.8
		H68.3z"/>
	<path class="st1" d="M58.7,442.1c-0.8,0-1.5-0.2-2.1-0.7c-0.6-0.4-1-1.1-1.3-1.9c-0.3-0.8-0.4-1.9-0.4-3c0-1.2,0.1-2.2,0.4-3
		c0.3-0.8,0.7-1.5,1.3-1.9c0.6-0.4,1.2-0.7,2-0.7s1.5,0.2,2,0.7c0.6,0.4,1,1.1,1.3,1.9c0.3,0.8,0.5,1.8,0.5,3c0,1.2-0.1,2.2-0.4,3
		c-0.3,0.8-0.7,1.5-1.3,1.9C60.2,441.9,59.5,442.1,58.7,442.1z M58.7,441c0.8,0,1.4-0.4,1.9-1.1s0.7-1.9,0.7-3.3
		c0-0.9-0.1-1.7-0.3-2.4c-0.2-0.7-0.5-1.2-0.9-1.5c-0.4-0.3-0.8-0.5-1.3-0.5c-0.8,0-1.4,0.4-1.8,1.2c-0.4,0.8-0.7,1.9-0.7,3.3
		c0,0.9,0.1,1.7,0.3,2.4c0.2,0.7,0.5,1.2,0.9,1.5C57.7,440.8,58.2,441,58.7,441z M64.5,442v-1l3.6-3.9c0.4-0.5,0.8-0.9,1-1.2
		c0.3-0.3,0.5-0.7,0.6-1c0.1-0.3,0.2-0.6,0.2-1c0-0.4-0.1-0.7-0.3-1c-0.2-0.3-0.4-0.5-0.7-0.6c-0.3-0.2-0.7-0.2-1.1-0.2
		c-0.4,0-0.8,0.1-1.1,0.3c-0.3,0.2-0.5,0.4-0.7,0.7c-0.2,0.3-0.3,0.7-0.3,1.1h-1.3c0-0.6,0.1-1.2,0.4-1.7c0.3-0.5,0.7-0.9,1.2-1.1
		c0.5-0.3,1.1-0.4,1.7-0.4c0.6,0,1.2,0.1,1.7,0.4c0.5,0.3,0.9,0.6,1.2,1.1c0.3,0.5,0.4,1,0.4,1.5c0,0.4-0.1,0.8-0.2,1.2
		c-0.1,0.4-0.4,0.8-0.7,1.3c-0.4,0.5-0.8,1-1.5,1.7l-2.5,2.6v0.1h5.1v1.2H64.5z"/>
	<path class="st1" d="M58.7,376.1c-0.8,0-1.5-0.2-2.1-0.7c-0.6-0.4-1-1.1-1.3-1.9c-0.3-0.8-0.4-1.9-0.4-3c0-1.2,0.1-2.2,0.4-3
		c0.3-0.8,0.7-1.5,1.3-1.9c0.6-0.4,1.2-0.7,2-0.7s1.5,0.2,2,0.7c0.6,0.4,1,1.1,1.3,1.9c0.3,0.8,0.5,1.8,0.5,3c0,1.2-0.1,2.2-0.4,3
		c-0.3,0.8-0.7,1.5-1.3,1.9C60.2,375.9,59.5,376.1,58.7,376.1z M58.7,375c0.8,0,1.4-0.4,1.9-1.1s0.7-1.9,0.7-3.3
		c0-0.9-0.1-1.7-0.3-2.4c-0.2-0.7-0.5-1.2-0.9-1.5c-0.4-0.3-0.8-0.5-1.3-0.5c-0.8,0-1.4,0.4-1.8,1.2c-0.4,0.8-0.7,1.9-0.7,3.3
		c0,0.9,0.1,1.7,0.3,2.4c0.2,0.7,0.5,1.2,0.9,1.5C57.7,374.8,58.2,375,58.7,375z M68.2,376.1c-0.7,0-1.3-0.1-1.9-0.4
		c-0.5-0.2-1-0.6-1.3-1c-0.3-0.4-0.5-0.9-0.5-1.5h1.3c0,0.4,0.1,0.7,0.4,0.9c0.2,0.3,0.5,0.4,0.8,0.6c0.3,0.1,0.7,0.2,1.1,0.2
		c0.5,0,0.9-0.1,1.2-0.2c0.4-0.2,0.6-0.4,0.9-0.7c0.2-0.3,0.3-0.6,0.3-1c0-0.4-0.1-0.8-0.3-1.1c-0.2-0.3-0.5-0.5-0.9-0.7
		c-0.4-0.2-0.9-0.3-1.4-0.3h-0.9v-1.2H68c0.4,0,0.8-0.1,1.1-0.2c0.3-0.2,0.6-0.4,0.8-0.7c0.2-0.3,0.3-0.6,0.3-1c0-0.4-0.1-0.7-0.2-1
		c-0.2-0.3-0.4-0.5-0.7-0.6c-0.3-0.2-0.6-0.2-1-0.2c-0.4,0-0.7,0.1-1.1,0.2c-0.3,0.1-0.6,0.3-0.8,0.6c-0.2,0.3-0.3,0.6-0.3,0.9h-1.3
		c0-0.6,0.2-1.1,0.5-1.5c0.3-0.4,0.7-0.8,1.3-1c0.5-0.2,1.1-0.4,1.7-0.4c0.7,0,1.3,0.1,1.7,0.4c0.5,0.3,0.9,0.6,1.1,1.1
		c0.3,0.4,0.4,0.9,0.4,1.4c0,0.6-0.2,1.1-0.5,1.6c-0.3,0.4-0.8,0.7-1.3,0.9v0.1c0.7,0.1,1.2,0.4,1.6,0.9c0.4,0.5,0.6,1,0.6,1.7
		c0,0.6-0.2,1.1-0.5,1.6c-0.3,0.5-0.8,0.8-1.3,1.1C69.5,376,68.9,376.1,68.2,376.1z"/>
	<path class="st1" d="M56.7,310.1c-0.8,0-1.5-0.2-2.1-0.7c-0.6-0.4-1-1.1-1.3-1.9c-0.3-0.8-0.4-1.9-0.4-3c0-1.2,0.1-2.2,0.4-3
		c0.3-0.8,0.7-1.5,1.3-1.9c0.6-0.4,1.2-0.7,2-0.7s1.5,0.2,2,0.7c0.6,0.4,1,1.1,1.3,1.9c0.3,0.8,0.5,1.8,0.5,3c0,1.2-0.1,2.2-0.4,3
		c-0.3,0.8-0.7,1.5-1.3,1.9C58.2,309.9,57.5,310.1,56.7,310.1z M56.7,309c0.8,0,1.4-0.4,1.9-1.1s0.7-1.9,0.7-3.3
		c0-0.9-0.1-1.7-0.3-2.4c-0.2-0.7-0.5-1.2-0.9-1.5c-0.4-0.3-0.8-0.5-1.3-0.5c-0.8,0-1.4,0.4-1.8,1.2c-0.4,0.8-0.7,1.9-0.7,3.3
		c0,0.9,0.1,1.7,0.3,2.4c0.2,0.7,0.5,1.2,0.9,1.5C55.7,308.8,56.2,309,56.7,309z M62.2,307.8v-1.1l4.8-7.6h0.8v1.7h-0.5l-3.6,5.7
		v0.1h6.5v1.2H62.2z M67.4,310v-2.6v-0.5v-7.8h1.3V310H67.4z"/>
	<path class="st1" d="M56.7,244.1c-0.8,0-1.5-0.2-2.1-0.7c-0.6-0.4-1-1.1-1.3-1.9c-0.3-0.8-0.4-1.9-0.4-3c0-1.2,0.1-2.2,0.4-3
		c0.3-0.8,0.7-1.5,1.3-1.9c0.6-0.4,1.2-0.7,2-0.7s1.5,0.2,2,0.7c0.6,0.4,1,1.1,1.3,1.9c0.3,0.8,0.5,1.8,0.5,3c0,1.2-0.1,2.2-0.4,3
		c-0.3,0.8-0.7,1.5-1.3,1.9C58.2,243.9,57.5,244.1,56.7,244.1z M56.7,243c0.8,0,1.4-0.4,1.9-1.2s0.7-1.9,0.7-3.3
		c0-0.9-0.1-1.7-0.3-2.4c-0.2-0.7-0.5-1.2-0.9-1.5c-0.4-0.3-0.8-0.5-1.3-0.5c-0.8,0-1.4,0.4-1.8,1.2c-0.4,0.8-0.7,1.9-0.7,3.3
		c0,0.9,0.1,1.7,0.3,2.4c0.2,0.7,0.5,1.2,0.9,1.5C55.7,242.8,56.2,243,56.7,243z M65.9,244.1c-0.6,0-1.2-0.1-1.7-0.4
		c-0.5-0.2-0.9-0.6-1.2-1c-0.3-0.4-0.5-0.9-0.5-1.5h1.3c0,0.5,0.3,0.9,0.7,1.2c0.4,0.3,0.9,0.5,1.4,0.5c0.4,0,0.8-0.1,1.2-0.3
		c0.4-0.2,0.6-0.5,0.8-0.9c0.2-0.4,0.3-0.8,0.3-1.3c0-0.5-0.1-0.9-0.3-1.3c-0.2-0.4-0.5-0.7-0.9-0.9c-0.4-0.2-0.8-0.3-1.2-0.3
		c-0.3,0-0.7,0-1,0.2c-0.4,0.1-0.6,0.2-0.9,0.4l-1.2-0.1l0.7-5.4H69v1.2h-4.6l-0.4,3.2h0.1c0.2-0.2,0.5-0.3,0.8-0.4
		c0.3-0.1,0.7-0.2,1.1-0.2c0.7,0,1.3,0.2,1.8,0.5c0.5,0.3,0.9,0.7,1.2,1.3c0.3,0.6,0.5,1.2,0.5,1.9c0,0.7-0.2,1.3-0.5,1.9
		c-0.3,0.5-0.7,1-1.3,1.3C67.2,244,66.6,244.1,65.9,244.1z"/>
	
		<linearGradient id="SVGID_1_" gradientUnits="userSpaceOnUse" x1="284.9879" y1="480.3361" x2="284.9879" y2="99.3361" gradientTransform="matrix(1 0 0 -1 0 864)">
		<stop  offset="0" style="stop-color:#000000"/>
		<stop  offset="1" style="stop-color:#000000;stop-opacity:0"/>
	</linearGradient>
	<path class="st2" d="M30,765l63.5-81.5l254-87.5L540,384"/>
</g>
<line class="st3" x1="82.5" y1="512" x2="84" y2="229"/>
<line class="st3" x1="568" y1="512.5" x2="83" y2="512.5"/>
<linearGradient id="SVGID_00000057853573329230540180000013053420821911755164_" gradientUnits="userSpaceOnUse" x1="298" y1="469.1497" x2="470.43" y2="469.1497" gradientTransform="matrix(6.123234e-17 -1 -1 -6.123234e-17 578 810)">
	<stop  offset="0.1146" style="stop-color:#323499"/>
	<stop  offset="0.5469" style="stop-color:#323498"/>
	<stop  offset="0.9896" style="stop-color:#323497"/>
</linearGradient>
<rect x="105" y="332" style="fill:url(#SVGID_00000057853573329230540180000013053420821911755164_);" width="7.7" height="180"/>
<linearGradient id="SVGID_00000056411402029959073350000015576943399616008844_" gradientUnits="userSpaceOnUse" x1="382" y1="469" x2="629.15" y2="469" gradientTransform="matrix(6.123234e-17 -1 -1 -6.123234e-17 662 894)">
	<stop  offset="0.1146" style="stop-color:#323499"/>
	<stop  offset="0.5469" style="stop-color:#323498"/>
	<stop  offset="0.9896" style="stop-color:#323497"/>
</linearGradient>
<rect x="189" y="254" style="fill:url(#SVGID_00000056411402029959073350000015576943399616008844_);" width="8" height="258"/>
<linearGradient id="SVGID_00000044168415516205532090000005994952436160293533_" gradientUnits="userSpaceOnUse" x1="466" y1="469" x2="520.603" y2="469" gradientTransform="matrix(6.123234e-17 -1 -1 -6.123234e-17 746 978)">
	<stop  offset="0.1146" style="stop-color:#323499"/>
	<stop  offset="0.5469" style="stop-color:#323498"/>
	<stop  offset="0.9896" style="stop-color:#323497"/>
</linearGradient>
<rect x="273" y="455" style="fill:url(#SVGID_00000044168415516205532090000005994952436160293533_);" width="8" height="57"/>
<linearGradient id="SVGID_00000103259628242797078200000010677601616057901755_" gradientUnits="userSpaceOnUse" x1="508" y1="469" x2="668.935" y2="469" gradientTransform="matrix(6.123234e-17 -1 -1 -6.123234e-17 788 1020)">
	<stop  offset="0.1146" style="stop-color:#323499"/>
	<stop  offset="0.5469" style="stop-color:#323498"/>
	<stop  offset="0.9896" style="stop-color:#323497"/>
</linearGradient>
<rect x="315" y="344" style="fill:url(#SVGID_00000103259628242797078200000010677601616057901755_);" width="8" height="168"/>
<linearGradient id="SVGID_00000005233347135403328210000017883731290333033857_" gradientUnits="userSpaceOnUse" x1="550" y1="469" x2="638.131" y2="469" gradientTransform="matrix(6.123234e-17 -1 -1 -6.123234e-17 830 1062)">
	<stop  offset="0.1146" style="stop-color:#323499"/>
	<stop  offset="0.5469" style="stop-color:#323498"/>
	<stop  offset="0.9896" style="stop-color:#323497"/>
</linearGradient>
<rect x="357" y="420" style="fill:url(#SVGID_00000005233347135403328210000017883731290333033857_);" width="8" height="92"/>
<linearGradient id="SVGID_00000176741916492953102760000004703636143083793343_" gradientUnits="userSpaceOnUse" x1="592" y1="469" x2="788.379" y2="469" gradientTransform="matrix(6.123234e-17 -1 -1 -6.123234e-17 872 1104)">
	<stop  offset="0.1146" style="stop-color:#323499"/>
	<stop  offset="0.5469" style="stop-color:#323498"/>
	<stop  offset="0.9896" style="stop-color:#323497"/>
</linearGradient>
<rect x="399" y="307" style="fill:url(#SVGID_00000176741916492953102760000004703636143083793343_);" width="8" height="205"/>
<linearGradient id="SVGID_00000057867387370610984790000017798778685957737901_" gradientUnits="userSpaceOnUse" x1="634" y1="469" x2="806.43" y2="469" gradientTransform="matrix(6.123234e-17 -1 -1 -6.123234e-17 914 1146)">
	<stop  offset="0.1146" style="stop-color:#323499"/>
	<stop  offset="0.5469" style="stop-color:#323498"/>
	<stop  offset="0.9896" style="stop-color:#323497"/>
</linearGradient>
<rect x="441" y="332" style="fill:url(#SVGID_00000057867387370610984790000017798778685957737901_);" width="8" height="180"/>
<linearGradient id="SVGID_00000134232760228312255400000007343790701655331460_" gradientUnits="userSpaceOnUse" x1="676" y1="469" x2="771.794" y2="469" gradientTransform="matrix(6.123234e-17 -1 -1 -6.123234e-17 956 1188)">
	<stop  offset="0.1146" style="stop-color:#323499"/>
	<stop  offset="0.5469" style="stop-color:#323498"/>
	<stop  offset="0.9896" style="stop-color:#323497"/>
</linearGradient>
<rect x="483" y="412" style="fill:url(#SVGID_00000134232760228312255400000007343790701655331460_);" width="8" height="100"/>
<linearGradient id="SVGID_00000028306748401849259180000009115749916701880206_" gradientUnits="userSpaceOnUse" x1="718" y1="469" x2="749.612" y2="469" gradientTransform="matrix(6.123234e-17 -1 -1 -6.123234e-17 998 1230)">
	<stop  offset="0.1146" style="stop-color:#323499"/>
	<stop  offset="0.5469" style="stop-color:#323498"/>
	<stop  offset="0.9896" style="stop-color:#323497"/>
</linearGradient>
<rect x="525" y="479" style="fill:url(#SVGID_00000028306748401849259180000009115749916701880206_);" width="8" height="33"/>
<linearGradient id="SVGID_00000181087294637433844130000016373601246165640866_" gradientUnits="userSpaceOnUse" x1="424" y1="469" x2="619.421" y2="469" gradientTransform="matrix(6.123234e-17 -1 -1 -6.123234e-17 704 936)">
	<stop  offset="0.1146" style="stop-color:#323499"/>
	<stop  offset="0.5469" style="stop-color:#323498"/>
	<stop  offset="0.9896" style="stop-color:#323497"/>
</linearGradient>
<rect x="231" y="308" style="fill:url(#SVGID_00000181087294637433844130000016373601246165640866_);" width="8" height="204"/>
<linearGradient id="SVGID_00000085247328396262923240000008359194800215421843_" gradientUnits="userSpaceOnUse" x1="340" y1="469" x2="389.813" y2="469" gradientTransform="matrix(6.123234e-17 -1 -1 -6.123234e-17 620 852)">
	<stop  offset="0.1146" style="stop-color:#323499"/>
	<stop  offset="0.5469" style="stop-color:#323498"/>
	<stop  offset="0.9896" style="stop-color:#323497"/>
</linearGradient>
<rect x="147" y="460" style="fill:url(#SVGID_00000085247328396262923240000008359194800215421843_);" width="8" height="52"/>
<linearGradient id="SVGID_00000057109192715686954150000011170391957780637599_" gradientUnits="userSpaceOnUse" x1="307.9064" y1="505" x2="307.9064" y2="105" gradientTransform="matrix(1 0 0 -1 0 864)">
	<stop  offset="0" style="stop-color:#000000"/>
	<stop  offset="1" style="stop-color:#323499"/>
</linearGradient>
<path style="fill:none;stroke:url(#SVGID_00000057109192715686954150000011170391957780637599_);stroke-width:2;" d="M60,759
	l21.8-43.8c18.5-37.2,50.2-66.2,88.8-81.2l53.3-20.8c85.1-33.2,162.4-83.8,226.9-148.5L556,359"/>
<circle class="st16" cx="100" cy="684" r="10"/>
<circle class="st17" cx="99" cy="684" r="35"/>
<circle class="st18" cx="99" cy="684" r="45"/>
<circle class="st16" cx="557" cy="362" r="10"/>
<circle class="st17" cx="556" cy="362" r="35"/>
<circle class="st18" cx="556" cy="362" r="45"/>
<circle class="st16" cx="313" cy="566" r="10"/>
<circle class="st17" cx="312" cy="566" r="35"/>
<circle class="st18" cx="312" cy="566" r="45"/>
<linearGradient id="SVGID_00000089562519722548279050000010921203883584448440_" gradientUnits="userSpaceOnUse" x1="568" y1="204" x2="926" y2="204" gradientTransform="matrix(1 0 0 -1 0 864)">
	<stop  offset="0" style="stop-color:#323499"/>
	<stop  offset="0.5781" style="stop-color:#323496"/>
	<stop  offset="1" style="stop-color:#323499"/>
</linearGradient>
<path style="fill:url(#SVGID_00000089562519722548279050000010921203883584448440_);" d="M588,561h318c11,0,20,9,20,20v158
	c0,11-9,20-20,20H588c-11,0-20-9-20-20V581C568,570,577,561,588,561z"/>
<path class="st1" d="M604.6,694.4c-1.9,0-3.6-0.4-5.1-1.1c-1.5-0.7-2.7-1.8-3.6-3.1c-0.9-1.3-1.4-2.8-1.5-4.4h3.8
	c0.1,1.5,0.8,2.7,2,3.7c1.2,1,2.6,1.4,4.3,1.4c1.3,0,2.5-0.3,3.6-0.9c1.1-0.6,1.9-1.5,2.5-2.6c0.6-1.1,0.9-2.4,0.9-3.8
	c0-1.4-0.3-2.7-0.9-3.8c-0.6-1.1-1.5-2-2.6-2.7c-1.1-0.6-2.3-1-3.7-1c-1,0-2,0.1-3.1,0.5c-1.1,0.3-1.9,0.7-2.6,1.2l-3.7-0.4l2-16.1
	h17v3.5h-13.7l-1.2,9.7h0.2c0.7-0.5,1.5-1,2.5-1.3c1-0.4,2.1-0.5,3.2-0.5c2,0,3.8,0.5,5.4,1.4c1.6,0.9,2.8,2.2,3.7,3.9
	c0.9,1.7,1.4,3.5,1.4,5.7c0,2.1-0.5,4-1.4,5.6c-0.9,1.6-2.2,2.9-3.8,3.9C608.5,694,606.7,694.4,604.6,694.4z M632.4,694.4
	c-2.4,0-4.5-0.7-6.2-2c-1.7-1.3-3-3.2-3.9-5.7c-0.9-2.5-1.3-5.5-1.3-9.1c0-3.5,0.4-6.6,1.3-9.1c0.9-2.5,2.2-4.4,3.9-5.8
	c1.7-1.3,3.8-2,6.1-2c2.4,0,4.4,0.7,6.1,2c1.7,1.3,3,3.2,3.9,5.8c0.9,2.5,1.4,5.5,1.4,9.1c0,3.6-0.4,6.6-1.3,9.1
	c-0.9,2.5-2.2,4.4-3.9,5.7C636.9,693.8,634.8,694.4,632.4,694.4z M632.4,690.9c2.4,0,4.2-1.2,5.6-3.5c1.3-2.3,2-5.6,2-9.8
	c0-2.8-0.3-5.2-0.9-7.2c-0.6-2-1.5-3.5-2.6-4.6c-1.1-1-2.5-1.6-4-1.6c-2.4,0-4.2,1.2-5.5,3.5c-1.3,2.3-2,5.6-2,9.9
	c0,2.8,0.3,5.2,0.9,7.2c0.6,2,1.5,3.5,2.6,4.5C629.5,690.4,630.9,690.9,632.4,690.9z M660.6,694.4c-2.4,0-4.5-0.7-6.2-2
	c-1.7-1.3-3-3.2-3.9-5.7c-0.9-2.5-1.3-5.5-1.3-9.1c0-3.5,0.4-6.6,1.3-9.1c0.9-2.5,2.2-4.4,3.9-5.8c1.7-1.3,3.8-2,6.1-2
	c2.4,0,4.4,0.7,6.1,2c1.7,1.3,3,3.2,3.9,5.8c0.9,2.5,1.4,5.5,1.4,9.1c0,3.6-0.4,6.6-1.3,9.1c-0.9,2.5-2.2,4.4-3.9,5.7
	C665,693.8,663,694.4,660.6,694.4z M660.6,690.9c2.4,0,4.2-1.2,5.6-3.5c1.3-2.3,2-5.6,2-9.8c0-2.8-0.3-5.2-0.9-7.2
	c-0.6-2-1.5-3.5-2.6-4.6c-1.1-1-2.5-1.6-4-1.6c-2.4,0-4.2,1.2-5.5,3.5c-1.3,2.3-2,5.6-2,9.9c0,2.8,0.3,5.2,0.9,7.2
	c0.6,2,1.5,3.5,2.6,4.5C657.6,690.4,659,690.9,660.6,690.9z M688.7,694.4c-2.4,0-4.5-0.7-6.2-2c-1.7-1.3-3-3.2-3.9-5.7
	c-0.9-2.5-1.3-5.5-1.3-9.1c0-3.5,0.4-6.6,1.3-9.1c0.9-2.5,2.2-4.4,3.9-5.8c1.7-1.3,3.8-2,6.1-2c2.4,0,4.4,0.7,6.1,2
	c1.7,1.3,3,3.2,3.9,5.8c0.9,2.5,1.4,5.5,1.4,9.1c0,3.6-0.4,6.6-1.3,9.1c-0.9,2.5-2.2,4.4-3.9,5.7
	C693.1,693.8,691.1,694.4,688.7,694.4z M688.7,690.9c2.4,0,4.2-1.2,5.6-3.5c1.3-2.3,2-5.6,2-9.8c0-2.8-0.3-5.2-0.9-7.2
	c-0.6-2-1.5-3.5-2.6-4.6c-1.1-1-2.5-1.6-4-1.6c-2.4,0-4.2,1.2-5.5,3.5c-1.3,2.3-2,5.6-2,9.9c0,2.8,0.3,5.2,0.9,7.2
	c0.6,2,1.5,3.5,2.6,4.5C685.7,690.4,687.1,690.9,688.7,690.9z"/>
<path class="st1" d="M609.9,614h-2.5c-0.1-0.7-0.4-1.3-0.8-1.9c-0.4-0.5-0.8-1-1.3-1.4c-0.5-0.4-1.1-0.6-1.7-0.8
	c-0.6-0.2-1.3-0.3-1.9-0.3c-1.2,0-2.3,0.3-3.4,0.9c-1,0.6-1.8,1.5-2.4,2.8c-0.6,1.2-0.9,2.7-0.9,4.5s0.3,3.3,0.9,4.5
	c0.6,1.2,1.4,2.1,2.4,2.8c1,0.6,2.1,0.9,3.4,0.9c0.7,0,1.3-0.1,1.9-0.3c0.6-0.2,1.2-0.5,1.7-0.8c0.5-0.4,1-0.8,1.3-1.4
	c0.4-0.5,0.6-1.2,0.8-1.9h2.5c-0.2,1-0.5,2-1,2.8c-0.5,0.8-1.1,1.5-1.8,2.1c-0.7,0.6-1.5,1-2.5,1.3c-0.9,0.3-1.9,0.4-2.9,0.4
	c-1.7,0-3.3-0.4-4.6-1.3c-1.4-0.8-2.4-2.1-3.2-3.6c-0.8-1.6-1.2-3.4-1.2-5.6s0.4-4,1.2-5.6c0.8-1.6,1.8-2.8,3.2-3.6
	c1.4-0.8,2.9-1.3,4.6-1.3c1,0,2,0.1,2.9,0.4c0.9,0.3,1.7,0.7,2.5,1.3c0.7,0.6,1.3,1.3,1.8,2.1C609.3,612,609.7,613,609.9,614z
	 M618,628.4c-1,0-1.8-0.2-2.6-0.5c-0.8-0.4-1.4-0.9-1.9-1.6c-0.5-0.7-0.7-1.6-0.7-2.5c0-0.9,0.2-1.6,0.5-2.1c0.3-0.5,0.8-1,1.4-1.3
	c0.6-0.3,1.2-0.5,1.9-0.7c0.7-0.2,1.4-0.3,2.1-0.4c0.9-0.1,1.7-0.2,2.3-0.3c0.6-0.1,1-0.2,1.3-0.3c0.3-0.2,0.4-0.4,0.4-0.8v-0.1
	c0-1-0.3-1.7-0.8-2.3c-0.5-0.5-1.3-0.8-2.4-0.8c-1.1,0-2,0.2-2.6,0.7c-0.6,0.5-1.1,1-1.3,1.6l-2.2-0.8c0.4-0.9,0.9-1.7,1.6-2.2
	c0.7-0.5,1.4-0.9,2.2-1.1c0.8-0.2,1.6-0.3,2.3-0.3c0.5,0,1.1,0.1,1.7,0.2c0.6,0.1,1.3,0.3,1.9,0.7c0.6,0.4,1.1,0.9,1.5,1.6
	c0.4,0.7,0.6,1.7,0.6,2.9V628h-2.3v-2.1h-0.1c-0.2,0.3-0.4,0.7-0.8,1.1c-0.4,0.4-0.9,0.7-1.5,1C619.7,628.2,618.9,628.4,618,628.4z
	 M618.4,626.2c0.9,0,1.7-0.2,2.3-0.5c0.6-0.4,1.1-0.8,1.5-1.4c0.3-0.6,0.5-1.2,0.5-1.8v-2.1c-0.1,0.1-0.3,0.2-0.7,0.3
	c-0.3,0.1-0.7,0.2-1.2,0.2c-0.4,0.1-0.9,0.1-1.3,0.2c-0.4,0-0.7,0.1-1,0.1c-0.6,0.1-1.2,0.2-1.7,0.4c-0.5,0.2-0.9,0.4-1.3,0.8
	c-0.3,0.3-0.5,0.8-0.5,1.4c0,0.8,0.3,1.4,0.9,1.8C616.7,626,617.4,626.2,618.4,626.2z M635.9,612.7v2H628v-2H635.9z M630.3,609.1
	h2.3v14.6c0,0.7,0.1,1.2,0.3,1.5c0.2,0.3,0.5,0.5,0.8,0.7c0.3,0.1,0.6,0.2,1,0.2c0.3,0,0.5,0,0.6,0c0.2,0,0.3-0.1,0.4-0.1l0.5,2.1
	c-0.2,0.1-0.4,0.1-0.7,0.2c-0.3,0.1-0.6,0.1-1.1,0.1c-0.7,0-1.3-0.1-1.9-0.4c-0.6-0.3-1.2-0.7-1.6-1.3c-0.4-0.6-0.6-1.3-0.6-2.2
	V609.1z M645.7,628.3c-1.5,0-2.7-0.3-3.8-1c-1.1-0.7-1.9-1.6-2.5-2.7c-0.6-1.2-0.9-2.6-0.9-4.1c0-1.6,0.3-2.9,0.9-4.1
	c0.6-1.2,1.4-2.1,2.4-2.8c1-0.7,2.2-1,3.6-1c0.8,0,1.6,0.1,2.4,0.4c0.8,0.3,1.5,0.7,2.1,1.3c0.6,0.6,1.1,1.4,1.5,2.3
	c0.4,1,0.6,2.2,0.6,3.6v1h-11.8v-2h9.4c0-0.9-0.2-1.6-0.5-2.3c-0.3-0.7-0.8-1.2-1.5-1.6c-0.6-0.4-1.4-0.6-2.2-0.6
	c-0.9,0-1.7,0.2-2.4,0.7c-0.7,0.5-1.2,1.1-1.6,1.8c-0.4,0.7-0.5,1.5-0.5,2.4v1.4c0,1.2,0.2,2.1,0.6,2.9c0.4,0.8,1,1.4,1.7,1.8
	c0.7,0.4,1.5,0.6,2.5,0.6c0.6,0,1.2-0.1,1.7-0.3c0.5-0.2,0.9-0.4,1.3-0.8c0.4-0.4,0.6-0.8,0.8-1.3l2.3,0.6c-0.2,0.8-0.6,1.4-1.2,2
	c-0.6,0.6-1.3,1-2.1,1.4C647.7,628.2,646.7,628.3,645.7,628.3z M661.8,634c-1.1,0-2.1-0.1-2.9-0.4c-0.8-0.3-1.5-0.7-2-1.1
	c-0.5-0.5-1-1-1.3-1.5l1.9-1.3c0.2,0.3,0.5,0.6,0.8,1c0.3,0.4,0.8,0.7,1.3,0.9c0.6,0.3,1.3,0.4,2.2,0.4c1.2,0,2.2-0.3,3.1-0.9
	c0.8-0.6,1.2-1.5,1.2-2.8v-3.1h-0.2c-0.2,0.3-0.4,0.6-0.7,1c-0.3,0.4-0.8,0.8-1.4,1.1c-0.6,0.3-1.4,0.5-2.4,0.5
	c-1.2,0-2.3-0.3-3.3-0.9c-1-0.6-1.7-1.4-2.3-2.5c-0.6-1.1-0.8-2.5-0.8-4.1c0-1.6,0.3-2.9,0.8-4.1c0.5-1.2,1.3-2.1,2.3-2.7
	c1-0.6,2.1-1,3.4-1c1,0,1.8,0.2,2.4,0.5c0.6,0.3,1,0.7,1.4,1.1c0.3,0.4,0.6,0.7,0.7,1h0.2v-2.4h2.3v15.7c0,1.3-0.3,2.4-0.9,3.2
	c-0.6,0.8-1.4,1.4-2.4,1.8C664.1,633.8,663,634,661.8,634z M661.7,625.7c0.9,0,1.7-0.2,2.4-0.6c0.6-0.4,1.1-1.1,1.5-1.9
	c0.3-0.8,0.5-1.8,0.5-2.9c0-1.1-0.2-2.1-0.5-2.9c-0.3-0.8-0.8-1.5-1.5-2c-0.6-0.5-1.5-0.7-2.4-0.7c-1,0-1.8,0.3-2.5,0.8
	c-0.7,0.5-1.2,1.2-1.5,2c-0.3,0.8-0.5,1.8-0.5,2.8c0,1.1,0.2,2,0.5,2.8c0.3,0.8,0.8,1.4,1.5,1.9
	C659.9,625.4,660.7,625.7,661.7,625.7z M678.9,628.3c-1.4,0-2.6-0.3-3.6-1c-1-0.7-1.8-1.6-2.4-2.8c-0.6-1.2-0.9-2.6-0.9-4.1
	c0-1.6,0.3-3,0.9-4.2c0.6-1.2,1.4-2.1,2.4-2.8c1-0.7,2.2-1,3.6-1c1.4,0,2.6,0.3,3.6,1c1,0.7,1.8,1.6,2.4,2.8
	c0.6,1.2,0.9,2.6,0.9,4.2c0,1.6-0.3,3-0.9,4.1c-0.6,1.2-1.4,2.1-2.4,2.8C681.5,628,680.2,628.3,678.9,628.3z M678.9,626.2
	c1,0,1.9-0.3,2.6-0.8c0.7-0.5,1.2-1.2,1.5-2.1c0.3-0.9,0.5-1.8,0.5-2.8s-0.2-2-0.5-2.9c-0.3-0.9-0.8-1.6-1.5-2.1
	c-0.7-0.5-1.5-0.8-2.6-0.8s-1.9,0.3-2.6,0.8c-0.7,0.5-1.2,1.3-1.5,2.1c-0.3,0.9-0.5,1.8-0.5,2.9s0.2,2,0.5,2.8s0.8,1.6,1.5,2.1
	C677,625.9,677.8,626.2,678.9,626.2z M689.4,628v-15.3h2.3v2.3h0.2c0.3-0.8,0.8-1.4,1.5-1.8c0.7-0.5,1.6-0.7,2.5-0.7
	c0.2,0,0.4,0,0.6,0c0.3,0,0.5,0,0.6,0v2.4c-0.1,0-0.3,0-0.5-0.1c-0.3,0-0.6-0.1-0.9-0.1c-0.7,0-1.4,0.2-2,0.5
	c-0.6,0.3-1,0.7-1.4,1.3c-0.3,0.5-0.5,1.2-0.5,1.8v9.7H689.4z M699.8,628v-15.3h2.3V628H699.8z M701,610.2c-0.5,0-0.9-0.2-1.2-0.5
	c-0.3-0.3-0.5-0.7-0.5-1.1c0-0.4,0.2-0.8,0.5-1.1c0.3-0.3,0.7-0.5,1.2-0.5c0.5,0,0.8,0.2,1.2,0.5c0.3,0.3,0.5,0.7,0.5,1.1
	c0,0.4-0.2,0.8-0.5,1.1C701.8,610,701.4,610.2,701,610.2z M710.9,628.4c-1,0-1.8-0.2-2.6-0.5c-0.8-0.4-1.4-0.9-1.9-1.6
	c-0.5-0.7-0.7-1.6-0.7-2.5c0-0.9,0.2-1.6,0.5-2.1c0.3-0.5,0.8-1,1.4-1.3c0.6-0.3,1.2-0.5,1.9-0.7c0.7-0.2,1.4-0.3,2.1-0.4
	c0.9-0.1,1.7-0.2,2.3-0.3c0.6-0.1,1-0.2,1.3-0.3c0.3-0.2,0.4-0.4,0.4-0.8v-0.1c0-1-0.3-1.7-0.8-2.3c-0.5-0.5-1.3-0.8-2.4-0.8
	c-1.1,0-2,0.2-2.6,0.7c-0.6,0.5-1.1,1-1.3,1.6l-2.2-0.8c0.4-0.9,0.9-1.7,1.6-2.2c0.7-0.5,1.4-0.9,2.2-1.1c0.8-0.2,1.6-0.3,2.3-0.3
	c0.5,0,1.1,0.1,1.7,0.2c0.6,0.1,1.3,0.3,1.9,0.7c0.6,0.4,1.1,0.9,1.5,1.6c0.4,0.7,0.6,1.7,0.6,2.9V628h-2.3v-2.1h-0.1
	c-0.2,0.3-0.4,0.7-0.8,1.1c-0.4,0.4-0.9,0.7-1.5,1C712.6,628.2,711.8,628.4,710.9,628.4z M711.3,626.2c0.9,0,1.7-0.2,2.3-0.5
	c0.6-0.4,1.1-0.8,1.5-1.4c0.3-0.6,0.5-1.2,0.5-1.8v-2.1c-0.1,0.1-0.3,0.2-0.7,0.3c-0.3,0.1-0.7,0.2-1.2,0.2
	c-0.4,0.1-0.9,0.1-1.3,0.2c-0.4,0-0.7,0.1-1,0.1c-0.6,0.1-1.2,0.2-1.7,0.4c-0.5,0.2-0.9,0.4-1.3,0.8c-0.3,0.3-0.5,0.8-0.5,1.4
	c0,0.8,0.3,1.4,0.9,1.8C709.6,626,710.3,626.2,711.3,626.2z M733,616.1l-2.1,0.6c-0.1-0.4-0.3-0.7-0.6-1c-0.3-0.3-0.6-0.6-1-0.8
	c-0.4-0.2-1-0.3-1.7-0.3c-0.9,0-1.7,0.2-2.3,0.6c-0.6,0.4-0.9,1-0.9,1.6c0,0.6,0.2,1,0.6,1.4c0.4,0.3,1.1,0.6,2,0.8l2.3,0.6
	c1.4,0.3,2.4,0.8,3.1,1.5c0.7,0.7,1,1.5,1,2.6c0,0.9-0.3,1.7-0.8,2.3c-0.5,0.7-1.2,1.2-2.1,1.6c-0.9,0.4-1.9,0.6-3.1,0.6
	c-1.6,0-2.8-0.3-3.9-1c-1-0.7-1.7-1.7-1.9-3l2.2-0.6c0.2,0.8,0.6,1.4,1.2,1.8c0.6,0.4,1.4,0.6,2.3,0.6c1.1,0,2-0.2,2.6-0.7
	c0.7-0.5,1-1,1-1.7c0-0.5-0.2-1-0.6-1.3c-0.4-0.4-0.9-0.6-1.7-0.8l-2.5-0.6c-1.4-0.3-2.4-0.8-3.1-1.5c-0.7-0.7-1-1.6-1-2.6
	c0-0.9,0.2-1.6,0.7-2.3c0.5-0.7,1.2-1.2,2-1.6c0.8-0.4,1.8-0.6,2.9-0.6c1.5,0,2.7,0.3,3.6,1C732,614.2,732.7,615.1,733,616.1z"/>
<path class="st1" d="M866.8,736.9c-2.5,0-5.1-2.1-6.3-3.1c-6.3-4.3-8.2-5.8-9.5-6.7v12.9c0,1.7,1.4,3.1,3.2,3.1h25.3
	c1.7,0,3.2-1.4,3.2-3.1v-12.9c-1.3,0.9-3.2,2.5-9.5,6.7C871.9,734.7,869.4,736.9,866.8,736.9z M879.5,718.5h-25.3
	c-1.7,0-3.2,1.4-3.2,3.1v1.5c2.5,1.8,2.2,1.8,11.4,8.3c0.9,0.6,2.8,2.5,4.4,2.5c1.6,0,3.5-1.8,4.4-2.1c9.2-6.4,8.9-6.4,11.4-8.3
	v-1.8C882.7,719.9,881.2,718.5,879.5,718.5z M904.8,709.3h-31.7c-1.7,0-3.2,1.4-3.2,3.1v3.1h9.5c3.3,0,6,2.4,6.3,5.5l0,0v12.9h19
	c1.7,0,3.2-1.4,3.2-3.1v-18.4C908,710.7,906.6,709.3,904.8,709.3z M901.7,721.6h-6.3v-6.1h6.3V721.6z M866.8,712.4
	c0-3.4,2.8-6.1,6.3-6.1h22.2v-9.2c0-1.7-1.4-3.1-3.2-3.1h-31.7c-1.7,0-3.2,1.4-3.2,3.1v18.4h9.5V712.4z"/>
<linearGradient id="SVGID_00000100374275411301224120000002386042814289947314_" gradientUnits="userSpaceOnUse" x1="356" y1="134" x2="602" y2="134">
	<stop  offset="0" style="stop-color:#323499"/>
	<stop  offset="0.5781" style="stop-color:#323496"/>
	<stop  offset="1" style="stop-color:#323499"/>
</linearGradient>
<path style="fill:url(#SVGID_00000100374275411301224120000002386042814289947314_);" d="M376,71h206c11,0,20,9,20,20v86
	c0,11-9,20-20,20H376c-11,0-20-9-20-20V91C356,80,365,71,376,71z"/>
<path class="st1" d="M581.6,168.6c0,0,0.5,2.2,0.6,2.6h-2c0.2-0.5,1-2.5,1-2.5c0,0,0.2-0.5,0.3-0.9L581.6,168.6z M588,159.8v20.4
	c0,1.5-1.3,2.8-2.9,2.8h-29.2c-1.6,0-2.9-1.2-2.9-2.8v-20.4c0-1.5,1.3-2.8,2.9-2.8h29.2C586.7,157,588,158.2,588,159.8z
	 M562.3,174.4l3.8-9h-2.6l-2.4,6.2l-0.3-1.2l-0.9-4.1c-0.1-0.6-0.6-0.7-1.1-0.8H555l0,0.2c1,0.2,1.8,0.6,2.6,1l2.2,7.8H562.3z
	 M568,174.4l1.5-9h-2.4l-1.5,9H568z M576.5,171.4c0-1-0.6-1.8-2-2.5c-0.9-0.4-1.4-0.7-1.4-1.1c0-0.4,0.4-0.8,1.4-0.8
	c0.8,0,1.4,0.2,1.8,0.3l0.2,0.1l0.3-1.9c-0.5-0.2-1.2-0.4-2.2-0.4c-2.4,0-4.1,1.2-4.1,3c0,1.3,1.2,2,2.1,2.4
	c0.9,0.4,1.3,0.7,1.3,1.1c0,0.6-0.8,0.9-1.5,0.9c-1,0-1.5-0.1-2.3-0.5l-0.3-0.1l-0.3,2c0.6,0.2,1.6,0.5,2.7,0.5
	C574.8,174.5,576.5,173.3,576.5,171.4z M585.1,174.4l-2-9h-1.9c-0.6,0-1,0.2-1.3,0.7l-3.6,8.3h2.6c0,0,0.4-1.1,0.5-1.4h3.1
	c0.1,0.3,0.3,1.4,0.3,1.4H585.1z"/>
<path class="st1" d="M381.1,157.6c-1.5,0-2.8-0.3-3.9-0.8c-1.1-0.5-2-1.2-2.6-2.2c-0.6-0.9-0.9-2-0.9-3.2c0-0.9,0.2-1.8,0.5-2.6
	c0.4-0.8,0.9-1.4,1.5-2c0.6-0.5,1.4-0.9,2.2-1v-0.1c-1-0.3-1.9-0.9-2.5-1.8c-0.6-0.9-0.9-1.9-0.9-3.1c0-1.1,0.3-2.1,0.8-3
	c0.6-0.9,1.4-1.6,2.3-2.1c1-0.5,2.1-0.8,3.4-0.8c1.3,0,2.4,0.3,3.4,0.8c1,0.5,1.8,1.2,2.3,2.1c0.6,0.9,0.9,1.9,0.9,3
	c0,1.2-0.3,2.2-0.9,3.1c-0.6,0.9-1.4,1.5-2.5,1.8v0.1c0.8,0.1,1.5,0.5,2.1,1c0.6,0.5,1.1,1.2,1.5,2c0.4,0.8,0.6,1.6,0.6,2.6
	c0,1.2-0.3,2.2-1,3.2c-0.6,0.9-1.5,1.6-2.6,2.2C383.8,157.3,382.5,157.6,381.1,157.6z M381.1,155.2c1,0,1.8-0.2,2.6-0.5
	c0.7-0.3,1.3-0.8,1.7-1.4c0.4-0.6,0.6-1.3,0.6-2c0-0.8-0.2-1.6-0.6-2.2s-1-1.1-1.7-1.5c-0.7-0.4-1.5-0.5-2.5-0.5
	c-0.9,0-1.8,0.2-2.5,0.5c-0.7,0.4-1.3,0.9-1.7,1.5c-0.4,0.6-0.6,1.4-0.6,2.2c0,0.8,0.2,1.5,0.6,2c0.4,0.6,0.9,1,1.7,1.4
	C379.2,155.1,380.1,155.2,381.1,155.2z M381.1,144.9c0.8,0,1.5-0.2,2.1-0.5c0.6-0.3,1.1-0.7,1.4-1.3c0.3-0.6,0.5-1.2,0.5-2
	c0-0.7-0.2-1.4-0.5-1.9c-0.3-0.6-0.8-1-1.4-1.3c-0.6-0.3-1.3-0.5-2.1-0.5c-0.8,0-1.5,0.2-2.1,0.5c-0.6,0.3-1.1,0.7-1.4,1.3
	c-0.3,0.5-0.5,1.2-0.5,1.9c0,0.8,0.2,1.4,0.5,2c0.3,0.6,0.8,1,1.4,1.3C379.6,144.7,380.3,144.9,381.1,144.9z M399.7,157.6
	c-1.6,0-3-0.4-4.1-1.3c-1.1-0.9-2-2.2-2.6-3.8c-0.6-1.7-0.9-3.7-0.9-6.1c0-2.4,0.3-4.4,0.9-6c0.6-1.7,1.5-3,2.6-3.8
	c1.1-0.9,2.5-1.3,4.1-1.3c1.6,0,3,0.4,4.1,1.3c1.1,0.9,2,2.2,2.6,3.8c0.6,1.7,0.9,3.7,0.9,6c0,2.4-0.3,4.4-0.9,6.1
	c-0.6,1.7-1.5,2.9-2.6,3.8C402.6,157.1,401.3,157.6,399.7,157.6z M399.7,155.2c1.6,0,2.8-0.8,3.7-2.3c0.9-1.5,1.3-3.7,1.3-6.6
	c0-1.9-0.2-3.5-0.6-4.8c-0.4-1.3-1-2.3-1.7-3c-0.7-0.7-1.6-1-2.7-1c-1.6,0-2.8,0.8-3.7,2.3c-0.9,1.5-1.3,3.7-1.3,6.6
	c0,1.9,0.2,3.5,0.6,4.8c0.4,1.3,1,2.3,1.7,3C397.7,154.9,398.6,155.2,399.7,155.2z"/>
<path class="st1" d="M373.8,99.1l3.2,9.2h0.1l3.2-9.2h1.4l-4,10.9h-1.4l-4-10.9H373.8z M386,110.2c-0.8,0-1.5-0.2-2-0.5
	c-0.6-0.4-1-0.8-1.3-1.5c-0.3-0.6-0.5-1.4-0.5-2.2s0.2-1.6,0.5-2.2c0.3-0.6,0.7-1.1,1.3-1.5c0.6-0.4,1.2-0.5,1.9-0.5
	c0.4,0,0.8,0.1,1.3,0.2c0.4,0.1,0.8,0.4,1.1,0.7c0.3,0.3,0.6,0.7,0.8,1.3c0.2,0.5,0.3,1.2,0.3,1.9v0.5H383v-1.1h5
	c0-0.5-0.1-0.9-0.3-1.2c-0.2-0.4-0.4-0.6-0.8-0.9c-0.3-0.2-0.7-0.3-1.2-0.3c-0.5,0-0.9,0.1-1.3,0.4c-0.4,0.2-0.6,0.6-0.8,1
	c-0.2,0.4-0.3,0.8-0.3,1.3v0.7c0,0.6,0.1,1.1,0.3,1.6c0.2,0.4,0.5,0.8,0.9,1c0.4,0.2,0.8,0.3,1.3,0.3c0.3,0,0.6,0,0.9-0.1
	c0.3-0.1,0.5-0.2,0.7-0.4c0.2-0.2,0.3-0.4,0.5-0.7l1.2,0.3c-0.1,0.4-0.3,0.8-0.6,1.1c-0.3,0.3-0.7,0.6-1.1,0.7
	C387,110.1,386.5,110.2,386,110.2z M392.5,105.1v4.9h-1.3v-8.2h1.2v1.3h0.1c0.2-0.4,0.5-0.8,0.9-1c0.4-0.3,0.9-0.4,1.5-0.4
	c0.6,0,1,0.1,1.5,0.3c0.4,0.2,0.7,0.6,1,1c0.2,0.5,0.3,1,0.3,1.7v5.2h-1.3v-5.1c0-0.6-0.2-1.1-0.5-1.5c-0.3-0.4-0.8-0.5-1.4-0.5
	c-0.4,0-0.8,0.1-1.1,0.3c-0.3,0.2-0.6,0.4-0.7,0.8C392.6,104.2,392.5,104.6,392.5,105.1z M403.6,101.8v1.1h-4.2v-1.1H403.6z
	 M400.6,99.9h1.3v7.8c0,0.4,0.1,0.6,0.2,0.8c0.1,0.2,0.2,0.3,0.4,0.4c0.2,0.1,0.3,0.1,0.5,0.1c0.1,0,0.3,0,0.3,0c0.1,0,0.2,0,0.2,0
	l0.3,1.1c-0.1,0-0.2,0.1-0.4,0.1c-0.2,0-0.3,0.1-0.6,0.1c-0.4,0-0.7-0.1-1-0.2c-0.3-0.2-0.6-0.4-0.8-0.7c-0.2-0.3-0.3-0.7-0.3-1.2
	V99.9z M407.9,110.2c-0.5,0-1-0.1-1.4-0.3c-0.4-0.2-0.8-0.5-1-0.9c-0.2-0.4-0.4-0.8-0.4-1.4c0-0.5,0.1-0.8,0.3-1.1
	c0.2-0.3,0.4-0.5,0.7-0.7c0.3-0.2,0.6-0.3,1-0.4c0.4-0.1,0.8-0.2,1.1-0.2c0.5-0.1,0.9-0.1,1.2-0.1c0.3,0,0.5-0.1,0.7-0.2
	c0.1-0.1,0.2-0.2,0.2-0.4v0c0-0.5-0.1-0.9-0.4-1.2c-0.3-0.3-0.7-0.4-1.3-0.4c-0.6,0-1.1,0.1-1.4,0.4s-0.6,0.5-0.7,0.8l-1.2-0.4
	c0.2-0.5,0.5-0.9,0.9-1.2c0.4-0.3,0.7-0.5,1.2-0.6c0.4-0.1,0.8-0.2,1.3-0.2c0.3,0,0.6,0,0.9,0.1c0.3,0.1,0.7,0.2,1,0.4
	c0.3,0.2,0.6,0.5,0.8,0.9c0.2,0.4,0.3,0.9,0.3,1.6v5.4h-1.3v-1.1h-0.1c-0.1,0.2-0.2,0.4-0.4,0.6c-0.2,0.2-0.5,0.4-0.8,0.5
	C408.8,110.1,408.4,110.2,407.9,110.2z M408.1,109.1c0.5,0,0.9-0.1,1.3-0.3c0.3-0.2,0.6-0.4,0.8-0.8c0.2-0.3,0.3-0.6,0.3-1v-1.2
	c-0.1,0.1-0.2,0.1-0.4,0.2c-0.2,0-0.4,0.1-0.6,0.1c-0.2,0-0.5,0.1-0.7,0.1c-0.2,0-0.4,0-0.5,0.1c-0.3,0-0.6,0.1-0.9,0.2
	c-0.3,0.1-0.5,0.2-0.7,0.4c-0.2,0.2-0.3,0.4-0.3,0.8c0,0.4,0.2,0.8,0.5,1C407.2,109,407.6,109.1,408.1,109.1z M419.7,103.7l-1.1,0.3
	c-0.1-0.2-0.2-0.4-0.3-0.5c-0.1-0.2-0.3-0.3-0.6-0.4c-0.2-0.1-0.5-0.2-0.9-0.2c-0.5,0-0.9,0.1-1.3,0.3c-0.3,0.2-0.5,0.5-0.5,0.9
	c0,0.3,0.1,0.6,0.3,0.7c0.2,0.2,0.6,0.3,1.1,0.5l1.2,0.3c0.7,0.2,1.3,0.4,1.6,0.8c0.4,0.4,0.5,0.8,0.5,1.4c0,0.5-0.1,0.9-0.4,1.3
	c-0.3,0.4-0.6,0.7-1.1,0.9c-0.5,0.2-1,0.3-1.7,0.3c-0.8,0-1.5-0.2-2.1-0.5s-0.9-0.9-1-1.6l1.2-0.3c0.1,0.4,0.3,0.8,0.6,1
	c0.3,0.2,0.7,0.3,1.3,0.3c0.6,0,1.1-0.1,1.4-0.4c0.3-0.3,0.5-0.6,0.5-0.9c0-0.3-0.1-0.5-0.3-0.7c-0.2-0.2-0.5-0.3-0.9-0.4l-1.4-0.3
	c-0.8-0.2-1.3-0.5-1.7-0.8c-0.3-0.4-0.5-0.8-0.5-1.4c0-0.5,0.1-0.9,0.4-1.2c0.3-0.4,0.6-0.6,1.1-0.8c0.5-0.2,1-0.3,1.5-0.3
	c0.8,0,1.4,0.2,1.9,0.5C419.2,102.6,419.5,103.1,419.7,103.7z"/>
</svg>
