<?xml version="1.0" encoding="utf-8"?>
<!-- Generator: Adobe Illustrator 26.4.1, SVG Export Plug-In . SVG Version: 6.00 Build 0)  -->
<svg version="1.1" id="Capa_1" xmlns="http://www.w3.org/2000/svg" xmlns:xlink="http://www.w3.org/1999/xlink" x="0px" y="0px"
	 viewBox="0 0 1440 160" style="enable-background:new 0 0 1440 160;" xml:space="preserve">
<style type="text/css">
	.st0{fill:none;stroke:#49BCC5;stroke-width:7;stroke-miterlimit:10;}
	.st1{fill:#312663;}
	.st2{fill:#49BCC5;}
</style>
<g>
	<line class="st0" x1="126.5" y1="77.3" x2="1316.8" y2="77.3"/>
	<ellipse class="st1" cx="126.5" cy="77.3" rx="32.4" ry="32.3"/>
	<ellipse class="st2" cx="205.7" cy="77.3" rx="21.8" ry="21.8"/>
	<ellipse class="st1" cx="289.3" cy="77.3" rx="32.4" ry="32.3"/>
	<ellipse class="st1" cx="383.4" cy="77.3" rx="32.4" ry="32.3"/>
	<ellipse class="st2" cx="462.6" cy="77.3" rx="21.8" ry="21.8"/>
	<ellipse class="st1" cx="546.2" cy="77.3" rx="32.3" ry="32.3"/>
	<ellipse class="st1" cx="640.2" cy="77.3" rx="32.3" ry="32.3"/>
	<ellipse class="st2" cx="719.5" cy="77.3" rx="21.8" ry="21.8"/>
	<ellipse class="st1" cx="803" cy="77.3" rx="32.3" ry="32.3"/>
	<ellipse class="st1" cx="897.1" cy="77.3" rx="32.3" ry="32.3"/>
	<ellipse class="st2" cx="976.3" cy="77.3" rx="21.8" ry="21.8"/>
	<ellipse class="st1" cx="1059.9" cy="77.3" rx="32.3" ry="32.3"/>
	<ellipse class="st1" cx="1154" cy="77.3" rx="32.3" ry="32.3"/>
	<ellipse class="st2" cx="1233.2" cy="77.3" rx="21.8" ry="21.8"/>
	<ellipse class="st1" cx="1316.8" cy="77.3" rx="32.3" ry="32.3"/>
</g>
</svg>
